<svg xmlns="http://www.w3.org/2000/svg" width="809" height="161" role="img" aria-label="WakaTime Heatmap (last_year)">
<rect width="100%" height="100%" fill="white"/>
<text x="20" y="24" font-family="system-ui, -apple-system, Segoe UI, Roboto, Ubuntu, Cantarell, Noto Sans, Arial" font-size="16" fill="#111">WakaTime Heatmap (last_year)</text>
<text x="20" y="44" font-family="system-ui, -apple-system, Segoe UI, Roboto, Ubuntu, Cantarell, Noto Sans, Arial" font-size="12" fill="#666">Daily totals from WakaTime (range: last_year)</text>
<text x="12" y="82" text-anchor="end" font-family="system-ui, -apple-system, Segoe UI, Roboto, Ubuntu, Cantarell, Noto Sans, Arial" font-size="10" fill="#888">Mon</text>
<text x="12" y="108" text-anchor="end" font-family="system-ui, -apple-system, Segoe UI, Roboto, Ubuntu, Cantarell, Noto Sans, Arial" font-size="10" fill="#888">Wed</text>
<text x="12" y="134" text-anchor="end" font-family="system-ui, -apple-system, Segoe UI, Roboto, Ubuntu, Cantarell, Noto Sans, Arial" font-size="10" fill="#888">Fri</text>
<rect x="20" y="60" width="11" height="11" rx="2" ry="2" fill="#ffffff"><title>2024-12-15: 0.00h</title></rect>
<rect x="20" y="73" width="11" height="11" rx="2" ry="2" fill="#ffffff"><title>2024-12-16: 0.00h</title></rect>
<rect x="20" y="86" width="11" height="11" rx="2" ry="2" fill="#ffffff"><title>2024-12-17: 0.00h</title></rect>
<rect x="20" y="99" width="11" height="11" rx="2" ry="2" fill="#ffffff"><title>2024-12-18: 0.00h</title></rect>
<rect x="20" y="112" width="11" height="11" rx="2" ry="2" fill="#ffffff"><title>2024-12-19: 0.00h</title></rect>
<rect x="20" y="125" width="11" height="11" rx="2" ry="2" fill="#ebedf0"><title>2024-12-20: 0.00h</title></rect>
<rect x="20" y="138" width="11" height="11" rx="2" ry="2" fill="#ebedf0"><title>2024-12-21: 0.00h</title></rect>
<rect x="33" y="60" width="11" height="11" rx="2" ry="2" fill="#ebedf0"><title>2024-12-22: 0.00h</title></rect>
<rect x="33" y="73" width="11" height="11" rx="2" ry="2" fill="#ebedf0"><title>2024-12-23: 0.00h</title></rect>
<rect x="33" y="86" width="11" height="11" rx="2" ry="2" fill="#ebedf0"><title>2024-12-24: 0.00h</title></rect>
<rect x="33" y="99" width="11" height="11" rx="2" ry="2" fill="#ebedf0"><title>2024-12-25: 0.00h</title></rect>
<rect x="33" y="112" width="11" height="11" rx="2" ry="2" fill="#ebedf0"><title>2024-12-26: 0.00h</title></rect>
<rect x="33" y="125" width="11" height="11" rx="2" ry="2" fill="#ebedf0"><title>2024-12-27: 0.00h</title></rect>
<rect x="33" y="138" width="11" height="11" rx="2" ry="2" fill="#ebedf0"><title>2024-12-28: 0.00h</title></rect>
<rect x="46" y="60" width="11" height="11" rx="2" ry="2" fill="#ebedf0"><title>2024-12-29: 0.00h</title></rect>
<rect x="46" y="73" width="11" height="11" rx="2" ry="2" fill="#ebedf0"><title>2024-12-30: 0.00h</title></rect>
<rect x="46" y="86" width="11" height="11" rx="2" ry="2" fill="#ebedf0"><title>2024-12-31: 0.00h</title></rect>
<rect x="46" y="99" width="11" height="11" rx="2" ry="2" fill="#ebedf0"><title>2025-01-01: 0.00h</title></rect>
<rect x="46" y="112" width="11" height="11" rx="2" ry="2" fill="#ebedf0"><title>2025-01-02: 0.00h</title></rect>
<rect x="46" y="125" width="11" height="11" rx="2" ry="2" fill="#ebedf0"><title>2025-01-03: 0.00h</title></rect>
<rect x="46" y="138" width="11" height="11" rx="2" ry="2" fill="#ebedf0"><title>2025-01-04: 0.00h</title></rect>
<rect x="59" y="60" width="11" height="11" rx="2" ry="2" fill="#ebedf0"><title>2025-01-05: 0.00h</title></rect>
<rect x="59" y="73" width="11" height="11" rx="2" ry="2" fill="#ebedf0"><title>2025-01-06: 0.00h</title></rect>
<rect x="59" y="86" width="11" height="11" rx="2" ry="2" fill="#ebedf0"><title>2025-01-07: 0.00h</title></rect>
<rect x="59" y="99" width="11" height="11" rx="2" ry="2" fill="#ebedf0"><title>2025-01-08: 0.00h</title></rect>
<rect x="59" y="112" width="11" height="11" rx="2" ry="2" fill="#ebedf0"><title>2025-01-09: 0.00h</title></rect>
<rect x="59" y="125" width="11" height="11" rx="2" ry="2" fill="#ebedf0"><title>2025-01-10: 0.00h</title></rect>
<rect x="59" y="138" width="11" height="11" rx="2" ry="2" fill="#ebedf0"><title>2025-01-11: 0.00h</title></rect>
<rect x="72" y="60" width="11" height="11" rx="2" ry="2" fill="#ebedf0"><title>2025-01-12: 0.00h</title></rect>
<rect x="72" y="73" width="11" height="11" rx="2" ry="2" fill="#ebedf0"><title>2025-01-13: 0.00h</title></rect>
<rect x="72" y="86" width="11" height="11" rx="2" ry="2" fill="#ebedf0"><title>2025-01-14: 0.00h</title></rect>
<rect x="72" y="99" width="11" height="11" rx="2" ry="2" fill="#ebedf0"><title>2025-01-15: 0.00h</title></rect>
<rect x="72" y="112" width="11" height="11" rx="2" ry="2" fill="#ebedf0"><title>2025-01-16: 0.00h</title></rect>
<rect x="72" y="125" width="11" height="11" rx="2" ry="2" fill="#ebedf0"><title>2025-01-17: 0.00h</title></rect>
<rect x="72" y="138" width="11" height="11" rx="2" ry="2" fill="#ebedf0"><title>2025-01-18: 0.00h</title></rect>
<rect x="85" y="60" width="11" height="11" rx="2" ry="2" fill="#ebedf0"><title>2025-01-19: 0.00h</title></rect>
<rect x="85" y="73" width="11" height="11" rx="2" ry="2" fill="#ebedf0"><title>2025-01-20: 0.00h</title></rect>
<rect x="85" y="86" width="11" height="11" rx="2" ry="2" fill="#ebedf0"><title>2025-01-21: 0.00h</title></rect>
<rect x="85" y="99" width="11" height="11" rx="2" ry="2" fill="#ebedf0"><title>2025-01-22: 0.00h</title></rect>
<rect x="85" y="112" width="11" height="11" rx="2" ry="2" fill="#ebedf0"><title>2025-01-23: 0.00h</title></rect>
<rect x="85" y="125" width="11" height="11" rx="2" ry="2" fill="#ebedf0"><title>2025-01-24: 0.00h</title></rect>
<rect x="85" y="138" width="11" height="11" rx="2" ry="2" fill="#ebedf0"><title>2025-01-25: 0.00h</title></rect>
<rect x="98" y="60" width="11" height="11" rx="2" ry="2" fill="#ebedf0"><title>2025-01-26: 0.00h</title></rect>
<rect x="98" y="73" width="11" height="11" rx="2" ry="2" fill="#ebedf0"><title>2025-01-27: 0.00h</title></rect>
<rect x="98" y="86" width="11" height="11" rx="2" ry="2" fill="#ebedf0"><title>2025-01-28: 0.00h</title></rect>
<rect x="98" y="99" width="11" height="11" rx="2" ry="2" fill="#ebedf0"><title>2025-01-29: 0.00h</title></rect>
<rect x="98" y="112" width="11" height="11" rx="2" ry="2" fill="#ebedf0"><title>2025-01-30: 0.00h</title></rect>
<rect x="98" y="125" width="11" height="11" rx="2" ry="2" fill="#ebedf0"><title>2025-01-31: 0.00h</title></rect>
<rect x="98" y="138" width="11" height="11" rx="2" ry="2" fill="#ebedf0"><title>2025-02-01: 0.00h</title></rect>
<rect x="111" y="60" width="11" height="11" rx="2" ry="2" fill="#ebedf0"><title>2025-02-02: 0.00h</title></rect>
<rect x="111" y="73" width="11" height="11" rx="2" ry="2" fill="#ebedf0"><title>2025-02-03: 0.00h</title></rect>
<rect x="111" y="86" width="11" height="11" rx="2" ry="2" fill="#ebedf0"><title>2025-02-04: 0.00h</title></rect>
<rect x="111" y="99" width="11" height="11" rx="2" ry="2" fill="#ebedf0"><title>2025-02-05: 0.00h</title></rect>
<rect x="111" y="112" width="11" height="11" rx="2" ry="2" fill="#ebedf0"><title>2025-02-06: 0.00h</title></rect>
<rect x="111" y="125" width="11" height="11" rx="2" ry="2" fill="#ebedf0"><title>2025-02-07: 0.00h</title></rect>
<rect x="111" y="138" width="11" height="11" rx="2" ry="2" fill="#ebedf0"><title>2025-02-08: 0.00h</title></rect>
<rect x="124" y="60" width="11" height="11" rx="2" ry="2" fill="#ebedf0"><title>2025-02-09: 0.00h</title></rect>
<rect x="124" y="73" width="11" height="11" rx="2" ry="2" fill="#ebedf0"><title>2025-02-10: 0.00h</title></rect>
<rect x="124" y="86" width="11" height="11" rx="2" ry="2" fill="#ebedf0"><title>2025-02-11: 0.00h</title></rect>
<rect x="124" y="99" width="11" height="11" rx="2" ry="2" fill="#ebedf0"><title>2025-02-12: 0.00h</title></rect>
<rect x="124" y="112" width="11" height="11" rx="2" ry="2" fill="#ebedf0"><title>2025-02-13: 0.00h</title></rect>
<rect x="124" y="125" width="11" height="11" rx="2" ry="2" fill="#ebedf0"><title>2025-02-14: 0.00h</title></rect>
<rect x="124" y="138" width="11" height="11" rx="2" ry="2" fill="#ebedf0"><title>2025-02-15: 0.00h</title></rect>
<rect x="137" y="60" width="11" height="11" rx="2" ry="2" fill="#ebedf0"><title>2025-02-16: 0.00h</title></rect>
<rect x="137" y="73" width="11" height="11" rx="2" ry="2" fill="#ebedf0"><title>2025-02-17: 0.00h</title></rect>
<rect x="137" y="86" width="11" height="11" rx="2" ry="2" fill="#ebedf0"><title>2025-02-18: 0.00h</title></rect>
<rect x="137" y="99" width="11" height="11" rx="2" ry="2" fill="#ebedf0"><title>2025-02-19: 0.00h</title></rect>
<rect x="137" y="112" width="11" height="11" rx="2" ry="2" fill="#ebedf0"><title>2025-02-20: 0.00h</title></rect>
<rect x="137" y="125" width="11" height="11" rx="2" ry="2" fill="#ebedf0"><title>2025-02-21: 0.00h</title></rect>
<rect x="137" y="138" width="11" height="11" rx="2" ry="2" fill="#ebedf0"><title>2025-02-22: 0.00h</title></rect>
<rect x="150" y="60" width="11" height="11" rx="2" ry="2" fill="#ebedf0"><title>2025-02-23: 0.00h</title></rect>
<rect x="150" y="73" width="11" height="11" rx="2" ry="2" fill="#ebedf0"><title>2025-02-24: 0.00h</title></rect>
<rect x="150" y="86" width="11" height="11" rx="2" ry="2" fill="#ebedf0"><title>2025-02-25: 0.00h</title></rect>
<rect x="150" y="99" width="11" height="11" rx="2" ry="2" fill="#ebedf0"><title>2025-02-26: 0.00h</title></rect>
<rect x="150" y="112" width="11" height="11" rx="2" ry="2" fill="#ebedf0"><title>2025-02-27: 0.00h</title></rect>
<rect x="150" y="125" width="11" height="11" rx="2" ry="2" fill="#ebedf0"><title>2025-02-28: 0.00h</title></rect>
<rect x="150" y="138" width="11" height="11" rx="2" ry="2" fill="#ebedf0"><title>2025-03-01: 0.00h</title></rect>
<rect x="163" y="60" width="11" height="11" rx="2" ry="2" fill="#ebedf0"><title>2025-03-02: 0.00h</title></rect>
<rect x="163" y="73" width="11" height="11" rx="2" ry="2" fill="#ebedf0"><title>2025-03-03: 0.00h</title></rect>
<rect x="163" y="86" width="11" height="11" rx="2" ry="2" fill="#ebedf0"><title>2025-03-04: 0.00h</title></rect>
<rect x="163" y="99" width="11" height="11" rx="2" ry="2" fill="#ebedf0"><title>2025-03-05: 0.00h</title></rect>
<rect x="163" y="112" width="11" height="11" rx="2" ry="2" fill="#ebedf0"><title>2025-03-06: 0.00h</title></rect>
<rect x="163" y="125" width="11" height="11" rx="2" ry="2" fill="#ebedf0"><title>2025-03-07: 0.00h</title></rect>
<rect x="163" y="138" width="11" height="11" rx="2" ry="2" fill="#ebedf0"><title>2025-03-08: 0.00h</title></rect>
<rect x="176" y="60" width="11" height="11" rx="2" ry="2" fill="#ebedf0"><title>2025-03-09: 0.00h</title></rect>
<rect x="176" y="73" width="11" height="11" rx="2" ry="2" fill="#ebedf0"><title>2025-03-10: 0.00h</title></rect>
<rect x="176" y="86" width="11" height="11" rx="2" ry="2" fill="#ebedf0"><title>2025-03-11: 0.00h</title></rect>
<rect x="176" y="99" width="11" height="11" rx="2" ry="2" fill="#ebedf0"><title>2025-03-12: 0.00h</title></rect>
<rect x="176" y="112" width="11" height="11" rx="2" ry="2" fill="#ebedf0"><title>2025-03-13: 0.00h</title></rect>
<rect x="176" y="125" width="11" height="11" rx="2" ry="2" fill="#ebedf0"><title>2025-03-14: 0.00h</title></rect>
<rect x="176" y="138" width="11" height="11" rx="2" ry="2" fill="#ebedf0"><title>2025-03-15: 0.00h</title></rect>
<rect x="189" y="60" width="11" height="11" rx="2" ry="2" fill="#ebedf0"><title>2025-03-16: 0.00h</title></rect>
<rect x="189" y="73" width="11" height="11" rx="2" ry="2" fill="#ebedf0"><title>2025-03-17: 0.00h</title></rect>
<rect x="189" y="86" width="11" height="11" rx="2" ry="2" fill="#ebedf0"><title>2025-03-18: 0.00h</title></rect>
<rect x="189" y="99" width="11" height="11" rx="2" ry="2" fill="#ebedf0"><title>2025-03-19: 0.00h</title></rect>
<rect x="189" y="112" width="11" height="11" rx="2" ry="2" fill="#ebedf0"><title>2025-03-20: 0.00h</title></rect>
<rect x="189" y="125" width="11" height="11" rx="2" ry="2" fill="#ebedf0"><title>2025-03-21: 0.00h</title></rect>
<rect x="189" y="138" width="11" height="11" rx="2" ry="2" fill="#ebedf0"><title>2025-03-22: 0.00h</title></rect>
<rect x="202" y="60" width="11" height="11" rx="2" ry="2" fill="#ebedf0"><title>2025-03-23: 0.00h</title></rect>
<rect x="202" y="73" width="11" height="11" rx="2" ry="2" fill="#ebedf0"><title>2025-03-24: 0.00h</title></rect>
<rect x="202" y="86" width="11" height="11" rx="2" ry="2" fill="#ebedf0"><title>2025-03-25: 0.00h</title></rect>
<rect x="202" y="99" width="11" height="11" rx="2" ry="2" fill="#ebedf0"><title>2025-03-26: 0.00h</title></rect>
<rect x="202" y="112" width="11" height="11" rx="2" ry="2" fill="#ebedf0"><title>2025-03-27: 0.00h</title></rect>
<rect x="202" y="125" width="11" height="11" rx="2" ry="2" fill="#ebedf0"><title>2025-03-28: 0.00h</title></rect>
<rect x="202" y="138" width="11" height="11" rx="2" ry="2" fill="#ebedf0"><title>2025-03-29: 0.00h</title></rect>
<rect x="215" y="60" width="11" height="11" rx="2" ry="2" fill="#ebedf0"><title>2025-03-30: 0.00h</title></rect>
<rect x="215" y="73" width="11" height="11" rx="2" ry="2" fill="#ebedf0"><title>2025-03-31: 0.00h</title></rect>
<rect x="215" y="86" width="11" height="11" rx="2" ry="2" fill="#ebedf0"><title>2025-04-01: 0.00h</title></rect>
<rect x="215" y="99" width="11" height="11" rx="2" ry="2" fill="#ebedf0"><title>2025-04-02: 0.00h</title></rect>
<rect x="215" y="112" width="11" height="11" rx="2" ry="2" fill="#ebedf0"><title>2025-04-03: 0.00h</title></rect>
<rect x="215" y="125" width="11" height="11" rx="2" ry="2" fill="#ebedf0"><title>2025-04-04: 0.00h</title></rect>
<rect x="215" y="138" width="11" height="11" rx="2" ry="2" fill="#ebedf0"><title>2025-04-05: 0.00h</title></rect>
<rect x="228" y="60" width="11" height="11" rx="2" ry="2" fill="#ebedf0"><title>2025-04-06: 0.00h</title></rect>
<rect x="228" y="73" width="11" height="11" rx="2" ry="2" fill="#ebedf0"><title>2025-04-07: 0.00h</title></rect>
<rect x="228" y="86" width="11" height="11" rx="2" ry="2" fill="#ebedf0"><title>2025-04-08: 0.00h</title></rect>
<rect x="228" y="99" width="11" height="11" rx="2" ry="2" fill="#ebedf0"><title>2025-04-09: 0.00h</title></rect>
<rect x="228" y="112" width="11" height="11" rx="2" ry="2" fill="#ebedf0"><title>2025-04-10: 0.00h</title></rect>
<rect x="228" y="125" width="11" height="11" rx="2" ry="2" fill="#ebedf0"><title>2025-04-11: 0.00h</title></rect>
<rect x="228" y="138" width="11" height="11" rx="2" ry="2" fill="#ebedf0"><title>2025-04-12: 0.00h</title></rect>
<rect x="241" y="60" width="11" height="11" rx="2" ry="2" fill="#ebedf0"><title>2025-04-13: 0.00h</title></rect>
<rect x="241" y="73" width="11" height="11" rx="2" ry="2" fill="#ebedf0"><title>2025-04-14: 0.00h</title></rect>
<rect x="241" y="86" width="11" height="11" rx="2" ry="2" fill="#ebedf0"><title>2025-04-15: 0.00h</title></rect>
<rect x="241" y="99" width="11" height="11" rx="2" ry="2" fill="#ebedf0"><title>2025-04-16: 0.00h</title></rect>
<rect x="241" y="112" width="11" height="11" rx="2" ry="2" fill="#ebedf0"><title>2025-04-17: 0.00h</title></rect>
<rect x="241" y="125" width="11" height="11" rx="2" ry="2" fill="#ebedf0"><title>2025-04-18: 0.00h</title></rect>
<rect x="241" y="138" width="11" height="11" rx="2" ry="2" fill="#ebedf0"><title>2025-04-19: 0.00h</title></rect>
<rect x="254" y="60" width="11" height="11" rx="2" ry="2" fill="#ebedf0"><title>2025-04-20: 0.00h</title></rect>
<rect x="254" y="73" width="11" height="11" rx="2" ry="2" fill="#ebedf0"><title>2025-04-21: 0.00h</title></rect>
<rect x="254" y="86" width="11" height="11" rx="2" ry="2" fill="#ebedf0"><title>2025-04-22: 0.00h</title></rect>
<rect x="254" y="99" width="11" height="11" rx="2" ry="2" fill="#ebedf0"><title>2025-04-23: 0.00h</title></rect>
<rect x="254" y="112" width="11" height="11" rx="2" ry="2" fill="#ebedf0"><title>2025-04-24: 0.00h</title></rect>
<rect x="254" y="125" width="11" height="11" rx="2" ry="2" fill="#ebedf0"><title>2025-04-25: 0.00h</title></rect>
<rect x="254" y="138" width="11" height="11" rx="2" ry="2" fill="#ebedf0"><title>2025-04-26: 0.00h</title></rect>
<rect x="267" y="60" width="11" height="11" rx="2" ry="2" fill="#ebedf0"><title>2025-04-27: 0.00h</title></rect>
<rect x="267" y="73" width="11" height="11" rx="2" ry="2" fill="#ebedf0"><title>2025-04-28: 0.00h</title></rect>
<rect x="267" y="86" width="11" height="11" rx="2" ry="2" fill="#ebedf0"><title>2025-04-29: 0.00h</title></rect>
<rect x="267" y="99" width="11" height="11" rx="2" ry="2" fill="#ebedf0"><title>2025-04-30: 0.00h</title></rect>
<rect x="267" y="112" width="11" height="11" rx="2" ry="2" fill="#ebedf0"><title>2025-05-01: 0.00h</title></rect>
<rect x="267" y="125" width="11" height="11" rx="2" ry="2" fill="#ebedf0"><title>2025-05-02: 0.00h</title></rect>
<rect x="267" y="138" width="11" height="11" rx="2" ry="2" fill="#ebedf0"><title>2025-05-03: 0.00h</title></rect>
<rect x="280" y="60" width="11" height="11" rx="2" ry="2" fill="#ebedf0"><title>2025-05-04: 0.00h</title></rect>
<rect x="280" y="73" width="11" height="11" rx="2" ry="2" fill="#ebedf0"><title>2025-05-05: 0.00h</title></rect>
<rect x="280" y="86" width="11" height="11" rx="2" ry="2" fill="#ebedf0"><title>2025-05-06: 0.00h</title></rect>
<rect x="280" y="99" width="11" height="11" rx="2" ry="2" fill="#ebedf0"><title>2025-05-07: 0.00h</title></rect>
<rect x="280" y="112" width="11" height="11" rx="2" ry="2" fill="#ebedf0"><title>2025-05-08: 0.00h</title></rect>
<rect x="280" y="125" width="11" height="11" rx="2" ry="2" fill="#ebedf0"><title>2025-05-09: 0.00h</title></rect>
<rect x="280" y="138" width="11" height="11" rx="2" ry="2" fill="#ebedf0"><title>2025-05-10: 0.00h</title></rect>
<rect x="293" y="60" width="11" height="11" rx="2" ry="2" fill="#ebedf0"><title>2025-05-11: 0.00h</title></rect>
<rect x="293" y="73" width="11" height="11" rx="2" ry="2" fill="#ebedf0"><title>2025-05-12: 0.00h</title></rect>
<rect x="293" y="86" width="11" height="11" rx="2" ry="2" fill="#ebedf0"><title>2025-05-13: 0.00h</title></rect>
<rect x="293" y="99" width="11" height="11" rx="2" ry="2" fill="#ebedf0"><title>2025-05-14: 0.00h</title></rect>
<rect x="293" y="112" width="11" height="11" rx="2" ry="2" fill="#ebedf0"><title>2025-05-15: 0.00h</title></rect>
<rect x="293" y="125" width="11" height="11" rx="2" ry="2" fill="#ebedf0"><title>2025-05-16: 0.00h</title></rect>
<rect x="293" y="138" width="11" height="11" rx="2" ry="2" fill="#ebedf0"><title>2025-05-17: 0.00h</title></rect>
<rect x="306" y="60" width="11" height="11" rx="2" ry="2" fill="#ebedf0"><title>2025-05-18: 0.00h</title></rect>
<rect x="306" y="73" width="11" height="11" rx="2" ry="2" fill="#ebedf0"><title>2025-05-19: 0.00h</title></rect>
<rect x="306" y="86" width="11" height="11" rx="2" ry="2" fill="#ebedf0"><title>2025-05-20: 0.00h</title></rect>
<rect x="306" y="99" width="11" height="11" rx="2" ry="2" fill="#ebedf0"><title>2025-05-21: 0.00h</title></rect>
<rect x="306" y="112" width="11" height="11" rx="2" ry="2" fill="#ebedf0"><title>2025-05-22: 0.00h</title></rect>
<rect x="306" y="125" width="11" height="11" rx="2" ry="2" fill="#ebedf0"><title>2025-05-23: 0.00h</title></rect>
<rect x="306" y="138" width="11" height="11" rx="2" ry="2" fill="#ebedf0"><title>2025-05-24: 0.00h</title></rect>
<rect x="319" y="60" width="11" height="11" rx="2" ry="2" fill="#ebedf0"><title>2025-05-25: 0.00h</title></rect>
<rect x="319" y="73" width="11" height="11" rx="2" ry="2" fill="#ebedf0"><title>2025-05-26: 0.00h</title></rect>
<rect x="319" y="86" width="11" height="11" rx="2" ry="2" fill="#ebedf0"><title>2025-05-27: 0.00h</title></rect>
<rect x="319" y="99" width="11" height="11" rx="2" ry="2" fill="#ebedf0"><title>2025-05-28: 0.00h</title></rect>
<rect x="319" y="112" width="11" height="11" rx="2" ry="2" fill="#ebedf0"><title>2025-05-29: 0.00h</title></rect>
<rect x="319" y="125" width="11" height="11" rx="2" ry="2" fill="#ebedf0"><title>2025-05-30: 0.00h</title></rect>
<rect x="319" y="138" width="11" height="11" rx="2" ry="2" fill="#ebedf0"><title>2025-05-31: 0.00h</title></rect>
<rect x="332" y="60" width="11" height="11" rx="2" ry="2" fill="#ebedf0"><title>2025-06-01: 0.00h</title></rect>
<rect x="332" y="73" width="11" height="11" rx="2" ry="2" fill="#ebedf0"><title>2025-06-02: 0.00h</title></rect>
<rect x="332" y="86" width="11" height="11" rx="2" ry="2" fill="#ebedf0"><title>2025-06-03: 0.00h</title></rect>
<rect x="332" y="99" width="11" height="11" rx="2" ry="2" fill="#ebedf0"><title>2025-06-04: 0.00h</title></rect>
<rect x="332" y="112" width="11" height="11" rx="2" ry="2" fill="#ebedf0"><title>2025-06-05: 0.00h</title></rect>
<rect x="332" y="125" width="11" height="11" rx="2" ry="2" fill="#ebedf0"><title>2025-06-06: 0.00h</title></rect>
<rect x="332" y="138" width="11" height="11" rx="2" ry="2" fill="#ebedf0"><title>2025-06-07: 0.00h</title></rect>
<rect x="345" y="60" width="11" height="11" rx="2" ry="2" fill="#ebedf0"><title>2025-06-08: 0.00h</title></rect>
<rect x="345" y="73" width="11" height="11" rx="2" ry="2" fill="#ebedf0"><title>2025-06-09: 0.00h</title></rect>
<rect x="345" y="86" width="11" height="11" rx="2" ry="2" fill="#ebedf0"><title>2025-06-10: 0.00h</title></rect>
<rect x="345" y="99" width="11" height="11" rx="2" ry="2" fill="#ebedf0"><title>2025-06-11: 0.00h</title></rect>
<rect x="345" y="112" width="11" height="11" rx="2" ry="2" fill="#ebedf0"><title>2025-06-12: 0.00h</title></rect>
<rect x="345" y="125" width="11" height="11" rx="2" ry="2" fill="#ebedf0"><title>2025-06-13: 0.00h</title></rect>
<rect x="345" y="138" width="11" height="11" rx="2" ry="2" fill="#ebedf0"><title>2025-06-14: 0.00h</title></rect>
<rect x="358" y="60" width="11" height="11" rx="2" ry="2" fill="#ebedf0"><title>2025-06-15: 0.00h</title></rect>
<rect x="358" y="73" width="11" height="11" rx="2" ry="2" fill="#ebedf0"><title>2025-06-16: 0.00h</title></rect>
<rect x="358" y="86" width="11" height="11" rx="2" ry="2" fill="#ebedf0"><title>2025-06-17: 0.00h</title></rect>
<rect x="358" y="99" width="11" height="11" rx="2" ry="2" fill="#ebedf0"><title>2025-06-18: 0.00h</title></rect>
<rect x="358" y="112" width="11" height="11" rx="2" ry="2" fill="#ebedf0"><title>2025-06-19: 0.00h</title></rect>
<rect x="358" y="125" width="11" height="11" rx="2" ry="2" fill="#ebedf0"><title>2025-06-20: 0.00h</title></rect>
<rect x="358" y="138" width="11" height="11" rx="2" ry="2" fill="#ebedf0"><title>2025-06-21: 0.00h</title></rect>
<rect x="371" y="60" width="11" height="11" rx="2" ry="2" fill="#ebedf0"><title>2025-06-22: 0.00h</title></rect>
<rect x="371" y="73" width="11" height="11" rx="2" ry="2" fill="#ebedf0"><title>2025-06-23: 0.00h</title></rect>
<rect x="371" y="86" width="11" height="11" rx="2" ry="2" fill="#ebedf0"><title>2025-06-24: 0.00h</title></rect>
<rect x="371" y="99" width="11" height="11" rx="2" ry="2" fill="#ebedf0"><title>2025-06-25: 0.00h</title></rect>
<rect x="371" y="112" width="11" height="11" rx="2" ry="2" fill="#ebedf0"><title>2025-06-26: 0.00h</title></rect>
<rect x="371" y="125" width="11" height="11" rx="2" ry="2" fill="#ebedf0"><title>2025-06-27: 0.00h</title></rect>
<rect x="371" y="138" width="11" height="11" rx="2" ry="2" fill="#ebedf0"><title>2025-06-28: 0.00h</title></rect>
<rect x="384" y="60" width="11" height="11" rx="2" ry="2" fill="#ebedf0"><title>2025-06-29: 0.00h</title></rect>
<rect x="384" y="73" width="11" height="11" rx="2" ry="2" fill="#ebedf0"><title>2025-06-30: 0.00h</title></rect>
<rect x="384" y="86" width="11" height="11" rx="2" ry="2" fill="#ebedf0"><title>2025-07-01: 0.00h</title></rect>
<rect x="384" y="99" width="11" height="11" rx="2" ry="2" fill="#ebedf0"><title>2025-07-02: 0.00h</title></rect>
<rect x="384" y="112" width="11" height="11" rx="2" ry="2" fill="#ebedf0"><title>2025-07-03: 0.00h</title></rect>
<rect x="384" y="125" width="11" height="11" rx="2" ry="2" fill="#ebedf0"><title>2025-07-04: 0.00h</title></rect>
<rect x="384" y="138" width="11" height="11" rx="2" ry="2" fill="#ebedf0"><title>2025-07-05: 0.00h</title></rect>
<rect x="397" y="60" width="11" height="11" rx="2" ry="2" fill="#ebedf0"><title>2025-07-06: 0.00h</title></rect>
<rect x="397" y="73" width="11" height="11" rx="2" ry="2" fill="#ebedf0"><title>2025-07-07: 0.00h</title></rect>
<rect x="397" y="86" width="11" height="11" rx="2" ry="2" fill="#ebedf0"><title>2025-07-08: 0.00h</title></rect>
<rect x="397" y="99" width="11" height="11" rx="2" ry="2" fill="#ebedf0"><title>2025-07-09: 0.00h</title></rect>
<rect x="397" y="112" width="11" height="11" rx="2" ry="2" fill="#ebedf0"><title>2025-07-10: 0.00h</title></rect>
<rect x="397" y="125" width="11" height="11" rx="2" ry="2" fill="#ebedf0"><title>2025-07-11: 0.00h</title></rect>
<rect x="397" y="138" width="11" height="11" rx="2" ry="2" fill="#ebedf0"><title>2025-07-12: 0.00h</title></rect>
<rect x="410" y="60" width="11" height="11" rx="2" ry="2" fill="#ebedf0"><title>2025-07-13: 0.00h</title></rect>
<rect x="410" y="73" width="11" height="11" rx="2" ry="2" fill="#ebedf0"><title>2025-07-14: 0.00h</title></rect>
<rect x="410" y="86" width="11" height="11" rx="2" ry="2" fill="#ebedf0"><title>2025-07-15: 0.00h</title></rect>
<rect x="410" y="99" width="11" height="11" rx="2" ry="2" fill="#ebedf0"><title>2025-07-16: 0.00h</title></rect>
<rect x="410" y="112" width="11" height="11" rx="2" ry="2" fill="#ebedf0"><title>2025-07-17: 0.00h</title></rect>
<rect x="410" y="125" width="11" height="11" rx="2" ry="2" fill="#ebedf0"><title>2025-07-18: 0.00h</title></rect>
<rect x="410" y="138" width="11" height="11" rx="2" ry="2" fill="#ebedf0"><title>2025-07-19: 0.00h</title></rect>
<rect x="423" y="60" width="11" height="11" rx="2" ry="2" fill="#ebedf0"><title>2025-07-20: 0.00h</title></rect>
<rect x="423" y="73" width="11" height="11" rx="2" ry="2" fill="#ebedf0"><title>2025-07-21: 0.00h</title></rect>
<rect x="423" y="86" width="11" height="11" rx="2" ry="2" fill="#ebedf0"><title>2025-07-22: 0.00h</title></rect>
<rect x="423" y="99" width="11" height="11" rx="2" ry="2" fill="#ebedf0"><title>2025-07-23: 0.00h</title></rect>
<rect x="423" y="112" width="11" height="11" rx="2" ry="2" fill="#ebedf0"><title>2025-07-24: 0.00h</title></rect>
<rect x="423" y="125" width="11" height="11" rx="2" ry="2" fill="#ebedf0"><title>2025-07-25: 0.00h</title></rect>
<rect x="423" y="138" width="11" height="11" rx="2" ry="2" fill="#ebedf0"><title>2025-07-26: 0.00h</title></rect>
<rect x="436" y="60" width="11" height="11" rx="2" ry="2" fill="#ebedf0"><title>2025-07-27: 0.00h</title></rect>
<rect x="436" y="73" width="11" height="11" rx="2" ry="2" fill="#ebedf0"><title>2025-07-28: 0.00h</title></rect>
<rect x="436" y="86" width="11" height="11" rx="2" ry="2" fill="#ebedf0"><title>2025-07-29: 0.00h</title></rect>
<rect x="436" y="99" width="11" height="11" rx="2" ry="2" fill="#ebedf0"><title>2025-07-30: 0.00h</title></rect>
<rect x="436" y="112" width="11" height="11" rx="2" ry="2" fill="#ebedf0"><title>2025-07-31: 0.00h</title></rect>
<rect x="436" y="125" width="11" height="11" rx="2" ry="2" fill="#ebedf0"><title>2025-08-01: 0.00h</title></rect>
<rect x="436" y="138" width="11" height="11" rx="2" ry="2" fill="#ebedf0"><title>2025-08-02: 0.00h</title></rect>
<rect x="449" y="60" width="11" height="11" rx="2" ry="2" fill="#ebedf0"><title>2025-08-03: 0.00h</title></rect>
<rect x="449" y="73" width="11" height="11" rx="2" ry="2" fill="#ebedf0"><title>2025-08-04: 0.00h</title></rect>
<rect x="449" y="86" width="11" height="11" rx="2" ry="2" fill="#ebedf0"><title>2025-08-05: 0.00h</title></rect>
<rect x="449" y="99" width="11" height="11" rx="2" ry="2" fill="#ebedf0"><title>2025-08-06: 0.00h</title></rect>
<rect x="449" y="112" width="11" height="11" rx="2" ry="2" fill="#ebedf0"><title>2025-08-07: 0.00h</title></rect>
<rect x="449" y="125" width="11" height="11" rx="2" ry="2" fill="#ebedf0"><title>2025-08-08: 0.00h</title></rect>
<rect x="449" y="138" width="11" height="11" rx="2" ry="2" fill="#ebedf0"><title>2025-08-09: 0.00h</title></rect>
<rect x="462" y="60" width="11" height="11" rx="2" ry="2" fill="#ebedf0"><title>2025-08-10: 0.00h</title></rect>
<rect x="462" y="73" width="11" height="11" rx="2" ry="2" fill="#ebedf0"><title>2025-08-11: 0.00h</title></rect>
<rect x="462" y="86" width="11" height="11" rx="2" ry="2" fill="#ebedf0"><title>2025-08-12: 0.00h</title></rect>
<rect x="462" y="99" width="11" height="11" rx="2" ry="2" fill="#ebedf0"><title>2025-08-13: 0.00h</title></rect>
<rect x="462" y="112" width="11" height="11" rx="2" ry="2" fill="#ebedf0"><title>2025-08-14: 0.00h</title></rect>
<rect x="462" y="125" width="11" height="11" rx="2" ry="2" fill="#ebedf0"><title>2025-08-15: 0.00h</title></rect>
<rect x="462" y="138" width="11" height="11" rx="2" ry="2" fill="#ebedf0"><title>2025-08-16: 0.00h</title></rect>
<rect x="475" y="60" width="11" height="11" rx="2" ry="2" fill="#ebedf0"><title>2025-08-17: 0.00h</title></rect>
<rect x="475" y="73" width="11" height="11" rx="2" ry="2" fill="#ebedf0"><title>2025-08-18: 0.00h</title></rect>
<rect x="475" y="86" width="11" height="11" rx="2" ry="2" fill="#ebedf0"><title>2025-08-19: 0.00h</title></rect>
<rect x="475" y="99" width="11" height="11" rx="2" ry="2" fill="#ebedf0"><title>2025-08-20: 0.00h</title></rect>
<rect x="475" y="112" width="11" height="11" rx="2" ry="2" fill="#ebedf0"><title>2025-08-21: 0.00h</title></rect>
<rect x="475" y="125" width="11" height="11" rx="2" ry="2" fill="#ebedf0"><title>2025-08-22: 0.00h</title></rect>
<rect x="475" y="138" width="11" height="11" rx="2" ry="2" fill="#ebedf0"><title>2025-08-23: 0.00h</title></rect>
<rect x="488" y="60" width="11" height="11" rx="2" ry="2" fill="#ebedf0"><title>2025-08-24: 0.00h</title></rect>
<rect x="488" y="73" width="11" height="11" rx="2" ry="2" fill="#ebedf0"><title>2025-08-25: 0.00h</title></rect>
<rect x="488" y="86" width="11" height="11" rx="2" ry="2" fill="#ebedf0"><title>2025-08-26: 0.00h</title></rect>
<rect x="488" y="99" width="11" height="11" rx="2" ry="2" fill="#ebedf0"><title>2025-08-27: 0.00h</title></rect>
<rect x="488" y="112" width="11" height="11" rx="2" ry="2" fill="#ebedf0"><title>2025-08-28: 0.00h</title></rect>
<rect x="488" y="125" width="11" height="11" rx="2" ry="2" fill="#ebedf0"><title>2025-08-29: 0.00h</title></rect>
<rect x="488" y="138" width="11" height="11" rx="2" ry="2" fill="#ebedf0"><title>2025-08-30: 0.00h</title></rect>
<rect x="501" y="60" width="11" height="11" rx="2" ry="2" fill="#ebedf0"><title>2025-08-31: 0.00h</title></rect>
<rect x="501" y="73" width="11" height="11" rx="2" ry="2" fill="#ebedf0"><title>2025-09-01: 0.00h</title></rect>
<rect x="501" y="86" width="11" height="11" rx="2" ry="2" fill="#ebedf0"><title>2025-09-02: 0.00h</title></rect>
<rect x="501" y="99" width="11" height="11" rx="2" ry="2" fill="#ebedf0"><title>2025-09-03: 0.00h</title></rect>
<rect x="501" y="112" width="11" height="11" rx="2" ry="2" fill="#ebedf0"><title>2025-09-04: 0.00h</title></rect>
<rect x="501" y="125" width="11" height="11" rx="2" ry="2" fill="#ebedf0"><title>2025-09-05: 0.00h</title></rect>
<rect x="501" y="138" width="11" height="11" rx="2" ry="2" fill="#ebedf0"><title>2025-09-06: 0.00h</title></rect>
<rect x="514" y="60" width="11" height="11" rx="2" ry="2" fill="#ebedf0"><title>2025-09-07: 0.00h</title></rect>
<rect x="514" y="73" width="11" height="11" rx="2" ry="2" fill="#ebedf0"><title>2025-09-08: 0.00h</title></rect>
<rect x="514" y="86" width="11" height="11" rx="2" ry="2" fill="#ebedf0"><title>2025-09-09: 0.00h</title></rect>
<rect x="514" y="99" width="11" height="11" rx="2" ry="2" fill="#ebedf0"><title>2025-09-10: 0.00h</title></rect>
<rect x="514" y="112" width="11" height="11" rx="2" ry="2" fill="#ebedf0"><title>2025-09-11: 0.00h</title></rect>
<rect x="514" y="125" width="11" height="11" rx="2" ry="2" fill="#ebedf0"><title>2025-09-12: 0.00h</title></rect>
<rect x="514" y="138" width="11" height="11" rx="2" ry="2" fill="#ebedf0"><title>2025-09-13: 0.00h</title></rect>
<rect x="527" y="60" width="11" height="11" rx="2" ry="2" fill="#ebedf0"><title>2025-09-14: 0.00h</title></rect>
<rect x="527" y="73" width="11" height="11" rx="2" ry="2" fill="#ebedf0"><title>2025-09-15: 0.00h</title></rect>
<rect x="527" y="86" width="11" height="11" rx="2" ry="2" fill="#ebedf0"><title>2025-09-16: 0.00h</title></rect>
<rect x="527" y="99" width="11" height="11" rx="2" ry="2" fill="#ebedf0"><title>2025-09-17: 0.00h</title></rect>
<rect x="527" y="112" width="11" height="11" rx="2" ry="2" fill="#ebedf0"><title>2025-09-18: 0.00h</title></rect>
<rect x="527" y="125" width="11" height="11" rx="2" ry="2" fill="#ebedf0"><title>2025-09-19: 0.00h</title></rect>
<rect x="527" y="138" width="11" height="11" rx="2" ry="2" fill="#ebedf0"><title>2025-09-20: 0.00h</title></rect>
<rect x="540" y="60" width="11" height="11" rx="2" ry="2" fill="#ebedf0"><title>2025-09-21: 0.00h</title></rect>
<rect x="540" y="73" width="11" height="11" rx="2" ry="2" fill="#ebedf0"><title>2025-09-22: 0.00h</title></rect>
<rect x="540" y="86" width="11" height="11" rx="2" ry="2" fill="#ebedf0"><title>2025-09-23: 0.00h</title></rect>
<rect x="540" y="99" width="11" height="11" rx="2" ry="2" fill="#ebedf0"><title>2025-09-24: 0.00h</title></rect>
<rect x="540" y="112" width="11" height="11" rx="2" ry="2" fill="#ebedf0"><title>2025-09-25: 0.00h</title></rect>
<rect x="540" y="125" width="11" height="11" rx="2" ry="2" fill="#ebedf0"><title>2025-09-26: 0.00h</title></rect>
<rect x="540" y="138" width="11" height="11" rx="2" ry="2" fill="#ebedf0"><title>2025-09-27: 0.00h</title></rect>
<rect x="553" y="60" width="11" height="11" rx="2" ry="2" fill="#ebedf0"><title>2025-09-28: 0.00h</title></rect>
<rect x="553" y="73" width="11" height="11" rx="2" ry="2" fill="#ebedf0"><title>2025-09-29: 0.00h</title></rect>
<rect x="553" y="86" width="11" height="11" rx="2" ry="2" fill="#ebedf0"><title>2025-09-30: 0.00h</title></rect>
<rect x="553" y="99" width="11" height="11" rx="2" ry="2" fill="#ebedf0"><title>2025-10-01: 0.00h</title></rect>
<rect x="553" y="112" width="11" height="11" rx="2" ry="2" fill="#ebedf0"><title>2025-10-02: 0.00h</title></rect>
<rect x="553" y="125" width="11" height="11" rx="2" ry="2" fill="#ebedf0"><title>2025-10-03: 0.00h</title></rect>
<rect x="553" y="138" width="11" height="11" rx="2" ry="2" fill="#ebedf0"><title>2025-10-04: 0.00h</title></rect>
<rect x="566" y="60" width="11" height="11" rx="2" ry="2" fill="#ebedf0"><title>2025-10-05: 0.00h</title></rect>
<rect x="566" y="73" width="11" height="11" rx="2" ry="2" fill="#ebedf0"><title>2025-10-06: 0.00h</title></rect>
<rect x="566" y="86" width="11" height="11" rx="2" ry="2" fill="#ebedf0"><title>2025-10-07: 0.00h</title></rect>
<rect x="566" y="99" width="11" height="11" rx="2" ry="2" fill="#ebedf0"><title>2025-10-08: 0.00h</title></rect>
<rect x="566" y="112" width="11" height="11" rx="2" ry="2" fill="#ebedf0"><title>2025-10-09: 0.00h</title></rect>
<rect x="566" y="125" width="11" height="11" rx="2" ry="2" fill="#ebedf0"><title>2025-10-10: 0.00h</title></rect>
<rect x="566" y="138" width="11" height="11" rx="2" ry="2" fill="#ebedf0"><title>2025-10-11: 0.00h</title></rect>
<rect x="579" y="60" width="11" height="11" rx="2" ry="2" fill="#ebedf0"><title>2025-10-12: 0.00h</title></rect>
<rect x="579" y="73" width="11" height="11" rx="2" ry="2" fill="#ebedf0"><title>2025-10-13: 0.00h</title></rect>
<rect x="579" y="86" width="11" height="11" rx="2" ry="2" fill="#ebedf0"><title>2025-10-14: 0.00h</title></rect>
<rect x="579" y="99" width="11" height="11" rx="2" ry="2" fill="#ebedf0"><title>2025-10-15: 0.00h</title></rect>
<rect x="579" y="112" width="11" height="11" rx="2" ry="2" fill="#ebedf0"><title>2025-10-16: 0.00h</title></rect>
<rect x="579" y="125" width="11" height="11" rx="2" ry="2" fill="#ebedf0"><title>2025-10-17: 0.00h</title></rect>
<rect x="579" y="138" width="11" height="11" rx="2" ry="2" fill="#ebedf0"><title>2025-10-18: 0.00h</title></rect>
<rect x="592" y="60" width="11" height="11" rx="2" ry="2" fill="#ebedf0"><title>2025-10-19: 0.00h</title></rect>
<rect x="592" y="73" width="11" height="11" rx="2" ry="2" fill="#ebedf0"><title>2025-10-20: 0.00h</title></rect>
<rect x="592" y="86" width="11" height="11" rx="2" ry="2" fill="#ebedf0"><title>2025-10-21: 0.00h</title></rect>
<rect x="592" y="99" width="11" height="11" rx="2" ry="2" fill="#ebedf0"><title>2025-10-22: 0.00h</title></rect>
<rect x="592" y="112" width="11" height="11" rx="2" ry="2" fill="#ebedf0"><title>2025-10-23: 0.00h</title></rect>
<rect x="592" y="125" width="11" height="11" rx="2" ry="2" fill="#ebedf0"><title>2025-10-24: 0.00h</title></rect>
<rect x="592" y="138" width="11" height="11" rx="2" ry="2" fill="#ebedf0"><title>2025-10-25: 0.00h</title></rect>
<rect x="605" y="60" width="11" height="11" rx="2" ry="2" fill="#ebedf0"><title>2025-10-26: 0.00h</title></rect>
<rect x="605" y="73" width="11" height="11" rx="2" ry="2" fill="#ebedf0"><title>2025-10-27: 0.00h</title></rect>
<rect x="605" y="86" width="11" height="11" rx="2" ry="2" fill="#ebedf0"><title>2025-10-28: 0.00h</title></rect>
<rect x="605" y="99" width="11" height="11" rx="2" ry="2" fill="#ebedf0"><title>2025-10-29: 0.00h</title></rect>
<rect x="605" y="112" width="11" height="11" rx="2" ry="2" fill="#ebedf0"><title>2025-10-30: 0.00h</title></rect>
<rect x="605" y="125" width="11" height="11" rx="2" ry="2" fill="#ebedf0"><title>2025-10-31: 0.00h</title></rect>
<rect x="605" y="138" width="11" height="11" rx="2" ry="2" fill="#ebedf0"><title>2025-11-01: 0.00h</title></rect>
<rect x="618" y="60" width="11" height="11" rx="2" ry="2" fill="#ebedf0"><title>2025-11-02: 0.00h</title></rect>
<rect x="618" y="73" width="11" height="11" rx="2" ry="2" fill="#ebedf0"><title>2025-11-03: 0.00h</title></rect>
<rect x="618" y="86" width="11" height="11" rx="2" ry="2" fill="#ebedf0"><title>2025-11-04: 0.00h</title></rect>
<rect x="618" y="99" width="11" height="11" rx="2" ry="2" fill="#ebedf0"><title>2025-11-05: 0.00h</title></rect>
<rect x="618" y="112" width="11" height="11" rx="2" ry="2" fill="#ebedf0"><title>2025-11-06: 0.00h</title></rect>
<rect x="618" y="125" width="11" height="11" rx="2" ry="2" fill="#ebedf0"><title>2025-11-07: 0.00h</title></rect>
<rect x="618" y="138" width="11" height="11" rx="2" ry="2" fill="#ebedf0"><title>2025-11-08: 0.00h</title></rect>
<rect x="631" y="60" width="11" height="11" rx="2" ry="2" fill="#ebedf0"><title>2025-11-09: 0.00h</title></rect>
<rect x="631" y="73" width="11" height="11" rx="2" ry="2" fill="#ebedf0"><title>2025-11-10: 0.00h</title></rect>
<rect x="631" y="86" width="11" height="11" rx="2" ry="2" fill="#ebedf0"><title>2025-11-11: 0.00h</title></rect>
<rect x="631" y="99" width="11" height="11" rx="2" ry="2" fill="#ebedf0"><title>2025-11-12: 0.00h</title></rect>
<rect x="631" y="112" width="11" height="11" rx="2" ry="2" fill="#ebedf0"><title>2025-11-13: 0.00h</title></rect>
<rect x="631" y="125" width="11" height="11" rx="2" ry="2" fill="#ebedf0"><title>2025-11-14: 0.00h</title></rect>
<rect x="631" y="138" width="11" height="11" rx="2" ry="2" fill="#ebedf0"><title>2025-11-15: 0.00h</title></rect>
<rect x="644" y="60" width="11" height="11" rx="2" ry="2" fill="#ebedf0"><title>2025-11-16: 0.00h</title></rect>
<rect x="644" y="73" width="11" height="11" rx="2" ry="2" fill="#ebedf0"><title>2025-11-17: 0.00h</title></rect>
<rect x="644" y="86" width="11" height="11" rx="2" ry="2" fill="#ebedf0"><title>2025-11-18: 0.00h</title></rect>
<rect x="644" y="99" width="11" height="11" rx="2" ry="2" fill="#ebedf0"><title>2025-11-19: 0.00h</title></rect>
<rect x="644" y="112" width="11" height="11" rx="2" ry="2" fill="#ebedf0"><title>2025-11-20: 0.00h</title></rect>
<rect x="644" y="125" width="11" height="11" rx="2" ry="2" fill="#ebedf0"><title>2025-11-21: 0.00h</title></rect>
<rect x="644" y="138" width="11" height="11" rx="2" ry="2" fill="#ebedf0"><title>2025-11-22: 0.00h</title></rect>
<rect x="657" y="60" width="11" height="11" rx="2" ry="2" fill="#ebedf0"><title>2025-11-23: 0.00h</title></rect>
<rect x="657" y="73" width="11" height="11" rx="2" ry="2" fill="#ebedf0"><title>2025-11-24: 0.00h</title></rect>
<rect x="657" y="86" width="11" height="11" rx="2" ry="2" fill="#ebedf0"><title>2025-11-25: 0.00h</title></rect>
<rect x="657" y="99" width="11" height="11" rx="2" ry="2" fill="#ebedf0"><title>2025-11-26: 0.00h</title></rect>
<rect x="657" y="112" width="11" height="11" rx="2" ry="2" fill="#ebedf0"><title>2025-11-27: 0.00h</title></rect>
<rect x="657" y="125" width="11" height="11" rx="2" ry="2" fill="#ebedf0"><title>2025-11-28: 0.00h</title></rect>
<rect x="657" y="138" width="11" height="11" rx="2" ry="2" fill="#ebedf0"><title>2025-11-29: 0.00h</title></rect>
<rect x="670" y="60" width="11" height="11" rx="2" ry="2" fill="#ebedf0"><title>2025-11-30: 0.00h</title></rect>
<rect x="670" y="73" width="11" height="11" rx="2" ry="2" fill="#ebedf0"><title>2025-12-01: 0.00h</title></rect>
<rect x="670" y="86" width="11" height="11" rx="2" ry="2" fill="#ebedf0"><title>2025-12-02: 0.00h</title></rect>
<rect x="670" y="99" width="11" height="11" rx="2" ry="2" fill="#ebedf0"><title>2025-12-03: 0.00h</title></rect>
<rect x="670" y="112" width="11" height="11" rx="2" ry="2" fill="#ebedf0"><title>2025-12-04: 0.00h</title></rect>
<rect x="670" y="125" width="11" height="11" rx="2" ry="2" fill="#ebedf0"><title>2025-12-05: 0.00h</title></rect>
<rect x="670" y="138" width="11" height="11" rx="2" ry="2" fill="#ebedf0"><title>2025-12-06: 0.00h</title></rect>
<rect x="683" y="60" width="11" height="11" rx="2" ry="2" fill="#ebedf0"><title>2025-12-07: 0.00h</title></rect>
<rect x="683" y="73" width="11" height="11" rx="2" ry="2" fill="#ebedf0"><title>2025-12-08: 0.00h</title></rect>
<rect x="683" y="86" width="11" height="11" rx="2" ry="2" fill="#ebedf0"><title>2025-12-09: 0.00h</title></rect>
<rect x="683" y="99" width="11" height="11" rx="2" ry="2" fill="#ebedf0"><title>2025-12-10: 0.00h</title></rect>
<rect x="683" y="112" width="11" height="11" rx="2" ry="2" fill="#ebedf0"><title>2025-12-11: 0.00h</title></rect>
<rect x="683" y="125" width="11" height="11" rx="2" ry="2" fill="#ebedf0"><title>2025-12-12: 0.00h</title></rect>
<rect x="683" y="138" width="11" height="11" rx="2" ry="2" fill="#ebedf0"><title>2025-12-13: 0.00h</title></rect>
<rect x="696" y="60" width="11" height="11" rx="2" ry="2" fill="#ebedf0"><title>2025-12-14: 0.00h</title></rect>
<rect x="696" y="73" width="11" height="11" rx="2" ry="2" fill="#ebedf0"><title>2025-12-15: 0.00h</title></rect>
<rect x="696" y="86" width="11" height="11" rx="2" ry="2" fill="#ebedf0"><title>2025-12-16: 0.00h</title></rect>
<rect x="696" y="99" width="11" height="11" rx="2" ry="2" fill="#ebedf0"><title>2025-12-17: 0.00h</title></rect>
<rect x="696" y="112" width="11" height="11" rx="2" ry="2" fill="#ebedf0"><title>2025-12-18: 0.00h</title></rect>
<rect x="696" y="125" width="11" height="11" rx="2" ry="2" fill="#ebedf0"><title>2025-12-19: 0.00h</title></rect>
<rect x="696" y="138" width="11" height="11" rx="2" ry="2" fill="#ebedf0"><title>2025-12-20: 0.00h</title></rect>
<text x="20" y="169" font-family="system-ui, -apple-system, Segoe UI, Roboto, Ubuntu, Cantarell, Noto Sans, Arial" font-size="10" fill="#666">Less</text>
<rect x="50" y="159" width="11" height="11" rx="2" ry="2" fill="#ebedf0"/>
<rect x="65" y="159" width="11" height="11" rx="2" ry="2" fill="#9be9a8"/>
<rect x="80" y="159" width="11" height="11" rx="2" ry="2" fill="#40c463"/>
<rect x="95" y="159" width="11" height="11" rx="2" ry="2" fill="#30a14e"/>
<rect x="110" y="159" width="11" height="11" rx="2" ry="2" fill="#216e39"/>
<text x="131" y="169" font-family="system-ui, -apple-system, Segoe UI, Roboto, Ubuntu, Cantarell, Noto Sans, Arial" font-size="10" fill="#666">More</text>
</svg>