<svg xmlns="http://www.w3.org/2000/svg" width="737" height="177" role="img" aria-label="WakaTime Heatmap 2025">
<rect width="100%" height="100%" fill="white"/>
<text x="12" y="18" font-family="system-ui, -apple-system, Segoe UI, Roboto, Ubuntu, Cantarell, Noto Sans, Arial" font-size="14" fill="#111">WakaTime Heatmap 2025</text>
<text x="12" y="34" font-family="system-ui, -apple-system, Segoe UI, Roboto, Ubuntu, Cantarell, Noto Sans, Arial" font-size="11" fill="#666">Daily Coding Time Activity From WakaTime</text>
<text x="30" y="74" text-anchor="end" font-family="system-ui, -apple-system, Segoe UI, Roboto, Ubuntu, Cantarell, Noto Sans, Arial" font-size="10" fill="#888">Mon</text>
<text x="30" y="100" text-anchor="end" font-family="system-ui, -apple-system, Segoe UI, Roboto, Ubuntu, Cantarell, Noto Sans, Arial" font-size="10" fill="#888">Wed</text>
<text x="30" y="126" text-anchor="end" font-family="system-ui, -apple-system, Segoe UI, Roboto, Ubuntu, Cantarell, Noto Sans, Arial" font-size="10" fill="#888">Fri</text>
<text x="49" y="40" font-family="system-ui, -apple-system, Segoe UI, Roboto, Ubuntu, Cantarell, Noto Sans, Arial" font-size="10" fill="#888">Jan</text>
<text x="101" y="40" font-family="system-ui, -apple-system, Segoe UI, Roboto, Ubuntu, Cantarell, Noto Sans, Arial" font-size="10" fill="#888">Feb</text>
<text x="153" y="40" font-family="system-ui, -apple-system, Segoe UI, Roboto, Ubuntu, Cantarell, Noto Sans, Arial" font-size="10" fill="#888">Mar</text>
<text x="218" y="40" font-family="system-ui, -apple-system, Segoe UI, Roboto, Ubuntu, Cantarell, Noto Sans, Arial" font-size="10" fill="#888">Apr</text>
<text x="270" y="40" font-family="system-ui, -apple-system, Segoe UI, Roboto, Ubuntu, Cantarell, Noto Sans, Arial" font-size="10" fill="#888">May</text>
<text x="335" y="40" font-family="system-ui, -apple-system, Segoe UI, Roboto, Ubuntu, Cantarell, Noto Sans, Arial" font-size="10" fill="#888">Jun</text>
<text x="387" y="40" font-family="system-ui, -apple-system, Segoe UI, Roboto, Ubuntu, Cantarell, Noto Sans, Arial" font-size="10" fill="#888">Jul</text>
<text x="439" y="40" font-family="system-ui, -apple-system, Segoe UI, Roboto, Ubuntu, Cantarell, Noto Sans, Arial" font-size="10" fill="#888">Aug</text>
<text x="504" y="40" font-family="system-ui, -apple-system, Segoe UI, Roboto, Ubuntu, Cantarell, Noto Sans, Arial" font-size="10" fill="#888">Sep</text>
<text x="556" y="40" font-family="system-ui, -apple-system, Segoe UI, Roboto, Ubuntu, Cantarell, Noto Sans, Arial" font-size="10" fill="#888">Oct</text>
<text x="608" y="40" font-family="system-ui, -apple-system, Segoe UI, Roboto, Ubuntu, Cantarell, Noto Sans, Arial" font-size="10" fill="#888">Nov</text>
<text x="673" y="40" font-family="system-ui, -apple-system, Segoe UI, Roboto, Ubuntu, Cantarell, Noto Sans, Arial" font-size="10" fill="#888">Dec</text>
<rect x="36" y="52" width="11" height="11" rx="2" ry="2" fill="#ffffff"><title>2024-12-22: 0.00h</title></rect>
<rect x="36" y="65" width="11" height="11" rx="2" ry="2" fill="#ebedf0"><title>2024-12-23: 0.00h</title></rect>
<rect x="36" y="78" width="11" height="11" rx="2" ry="2" fill="#ebedf0"><title>2024-12-24: 0.00h</title></rect>
<rect x="36" y="91" width="11" height="11" rx="2" ry="2" fill="#9be9a8"><title>2024-12-25: 1.10h</title></rect>
<rect x="36" y="104" width="11" height="11" rx="2" ry="2" fill="#40c463"><title>2024-12-26: 1.27h</title></rect>
<rect x="36" y="117" width="11" height="11" rx="2" ry="2" fill="#40c463"><title>2024-12-27: 1.36h</title></rect>
<rect x="36" y="130" width="11" height="11" rx="2" ry="2" fill="#40c463"><title>2024-12-28: 1.66h</title></rect>
<rect x="49" y="52" width="11" height="11" rx="2" ry="2" fill="#9be9a8"><title>2024-12-29: 0.70h</title></rect>
<rect x="49" y="65" width="11" height="11" rx="2" ry="2" fill="#40c463"><title>2024-12-30: 1.87h</title></rect>
<rect x="49" y="78" width="11" height="11" rx="2" ry="2" fill="#30a14e"><title>2024-12-31: 3.05h</title></rect>
<rect x="49" y="91" width="11" height="11" rx="2" ry="2" fill="#40c463"><title>2025-01-01: 1.81h</title></rect>
<rect x="49" y="104" width="11" height="11" rx="2" ry="2" fill="#30a14e"><title>2025-01-02: 2.86h</title></rect>
<rect x="49" y="117" width="11" height="11" rx="2" ry="2" fill="#40c463"><title>2025-01-03: 1.14h</title></rect>
<rect x="49" y="130" width="11" height="11" rx="2" ry="2" fill="#40c463"><title>2025-01-04: 1.26h</title></rect>
<rect x="62" y="52" width="11" height="11" rx="2" ry="2" fill="#9be9a8"><title>2025-01-05: 0.35h</title></rect>
<rect x="62" y="65" width="11" height="11" rx="2" ry="2" fill="#9be9a8"><title>2025-01-06: 0.59h</title></rect>
<rect x="62" y="78" width="11" height="11" rx="2" ry="2" fill="#ebedf0"><title>2025-01-07: 0.00h</title></rect>
<rect x="62" y="91" width="11" height="11" rx="2" ry="2" fill="#ebedf0"><title>2025-01-08: 0.00h</title></rect>
<rect x="62" y="104" width="11" height="11" rx="2" ry="2" fill="#ebedf0"><title>2025-01-09: 0.00h</title></rect>
<rect x="62" y="117" width="11" height="11" rx="2" ry="2" fill="#9be9a8"><title>2025-01-10: 0.67h</title></rect>
<rect x="62" y="130" width="11" height="11" rx="2" ry="2" fill="#9be9a8"><title>2025-01-11: 0.02h</title></rect>
<rect x="75" y="52" width="11" height="11" rx="2" ry="2" fill="#ebedf0"><title>2025-01-12: 0.00h</title></rect>
<rect x="75" y="65" width="11" height="11" rx="2" ry="2" fill="#ebedf0"><title>2025-01-13: 0.00h</title></rect>
<rect x="75" y="78" width="11" height="11" rx="2" ry="2" fill="#ebedf0"><title>2025-01-14: 0.00h</title></rect>
<rect x="75" y="91" width="11" height="11" rx="2" ry="2" fill="#ebedf0"><title>2025-01-15: 0.00h</title></rect>
<rect x="75" y="104" width="11" height="11" rx="2" ry="2" fill="#ebedf0"><title>2025-01-16: 0.00h</title></rect>
<rect x="75" y="117" width="11" height="11" rx="2" ry="2" fill="#ebedf0"><title>2025-01-17: 0.00h</title></rect>
<rect x="75" y="130" width="11" height="11" rx="2" ry="2" fill="#ebedf0"><title>2025-01-18: 0.00h</title></rect>
<rect x="88" y="52" width="11" height="11" rx="2" ry="2" fill="#ebedf0"><title>2025-01-19: 0.00h</title></rect>
<rect x="88" y="65" width="11" height="11" rx="2" ry="2" fill="#ebedf0"><title>2025-01-20: 0.00h</title></rect>
<rect x="88" y="78" width="11" height="11" rx="2" ry="2" fill="#ebedf0"><title>2025-01-21: 0.00h</title></rect>
<rect x="88" y="91" width="11" height="11" rx="2" ry="2" fill="#ebedf0"><title>2025-01-22: 0.00h</title></rect>
<rect x="88" y="104" width="11" height="11" rx="2" ry="2" fill="#ebedf0"><title>2025-01-23: 0.00h</title></rect>
<rect x="88" y="117" width="11" height="11" rx="2" ry="2" fill="#ebedf0"><title>2025-01-24: 0.00h</title></rect>
<rect x="88" y="130" width="11" height="11" rx="2" ry="2" fill="#ebedf0"><title>2025-01-25: 0.00h</title></rect>
<rect x="101" y="52" width="11" height="11" rx="2" ry="2" fill="#ebedf0"><title>2025-01-26: 0.00h</title></rect>
<rect x="101" y="65" width="11" height="11" rx="2" ry="2" fill="#ebedf0"><title>2025-01-27: 0.00h</title></rect>
<rect x="101" y="78" width="11" height="11" rx="2" ry="2" fill="#ebedf0"><title>2025-01-28: 0.00h</title></rect>
<rect x="101" y="91" width="11" height="11" rx="2" ry="2" fill="#ebedf0"><title>2025-01-29: 0.00h</title></rect>
<rect x="101" y="104" width="11" height="11" rx="2" ry="2" fill="#ebedf0"><title>2025-01-30: 0.00h</title></rect>
<rect x="101" y="117" width="11" height="11" rx="2" ry="2" fill="#ebedf0"><title>2025-01-31: 0.00h</title></rect>
<rect x="101" y="130" width="11" height="11" rx="2" ry="2" fill="#ebedf0"><title>2025-02-01: 0.00h</title></rect>
<rect x="114" y="52" width="11" height="11" rx="2" ry="2" fill="#ebedf0"><title>2025-02-02: 0.00h</title></rect>
<rect x="114" y="65" width="11" height="11" rx="2" ry="2" fill="#ebedf0"><title>2025-02-03: 0.00h</title></rect>
<rect x="114" y="78" width="11" height="11" rx="2" ry="2" fill="#9be9a8"><title>2025-02-04: 0.31h</title></rect>
<rect x="114" y="91" width="11" height="11" rx="2" ry="2" fill="#216e39"><title>2025-02-05: 8.20h</title></rect>
<rect x="114" y="104" width="11" height="11" rx="2" ry="2" fill="#216e39"><title>2025-02-06: 6.66h</title></rect>
<rect x="114" y="117" width="11" height="11" rx="2" ry="2" fill="#40c463"><title>2025-02-07: 2.13h</title></rect>
<rect x="114" y="130" width="11" height="11" rx="2" ry="2" fill="#30a14e"><title>2025-02-08: 2.25h</title></rect>
<rect x="127" y="52" width="11" height="11" rx="2" ry="2" fill="#216e39"><title>2025-02-09: 9.28h</title></rect>
<rect x="127" y="65" width="11" height="11" rx="2" ry="2" fill="#216e39"><title>2025-02-10: 4.62h</title></rect>
<rect x="127" y="78" width="11" height="11" rx="2" ry="2" fill="#9be9a8"><title>2025-02-11: 0.82h</title></rect>
<rect x="127" y="91" width="11" height="11" rx="2" ry="2" fill="#30a14e"><title>2025-02-12: 3.64h</title></rect>
<rect x="127" y="104" width="11" height="11" rx="2" ry="2" fill="#9be9a8"><title>2025-02-13: 0.13h</title></rect>
<rect x="127" y="117" width="11" height="11" rx="2" ry="2" fill="#216e39"><title>2025-02-14: 4.14h</title></rect>
<rect x="127" y="130" width="11" height="11" rx="2" ry="2" fill="#9be9a8"><title>2025-02-15: 1.10h</title></rect>
<rect x="140" y="52" width="11" height="11" rx="2" ry="2" fill="#30a14e"><title>2025-02-16: 2.69h</title></rect>
<rect x="140" y="65" width="11" height="11" rx="2" ry="2" fill="#9be9a8"><title>2025-02-17: 0.50h</title></rect>
<rect x="140" y="78" width="11" height="11" rx="2" ry="2" fill="#30a14e"><title>2025-02-18: 3.30h</title></rect>
<rect x="140" y="91" width="11" height="11" rx="2" ry="2" fill="#216e39"><title>2025-02-19: 6.19h</title></rect>
<rect x="140" y="104" width="11" height="11" rx="2" ry="2" fill="#216e39"><title>2025-02-20: 3.99h</title></rect>
<rect x="140" y="117" width="11" height="11" rx="2" ry="2" fill="#30a14e"><title>2025-02-21: 3.54h</title></rect>
<rect x="140" y="130" width="11" height="11" rx="2" ry="2" fill="#40c463"><title>2025-02-22: 2.03h</title></rect>
<rect x="153" y="52" width="11" height="11" rx="2" ry="2" fill="#40c463"><title>2025-02-23: 1.21h</title></rect>
<rect x="153" y="65" width="11" height="11" rx="2" ry="2" fill="#30a14e"><title>2025-02-24: 2.97h</title></rect>
<rect x="153" y="78" width="11" height="11" rx="2" ry="2" fill="#9be9a8"><title>2025-02-25: 0.95h</title></rect>
<rect x="153" y="91" width="11" height="11" rx="2" ry="2" fill="#30a14e"><title>2025-02-26: 3.85h</title></rect>
<rect x="153" y="104" width="11" height="11" rx="2" ry="2" fill="#40c463"><title>2025-02-27: 1.73h</title></rect>
<rect x="153" y="117" width="11" height="11" rx="2" ry="2" fill="#9be9a8"><title>2025-02-28: 0.74h</title></rect>
<rect x="153" y="130" width="11" height="11" rx="2" ry="2" fill="#ebedf0"><title>2025-03-01: 0.00h</title></rect>
<rect x="166" y="52" width="11" height="11" rx="2" ry="2" fill="#ebedf0"><title>2025-03-02: 0.00h</title></rect>
<rect x="166" y="65" width="11" height="11" rx="2" ry="2" fill="#ebedf0"><title>2025-03-03: 0.00h</title></rect>
<rect x="166" y="78" width="11" height="11" rx="2" ry="2" fill="#ebedf0"><title>2025-03-04: 0.00h</title></rect>
<rect x="166" y="91" width="11" height="11" rx="2" ry="2" fill="#9be9a8"><title>2025-03-05: 0.65h</title></rect>
<rect x="166" y="104" width="11" height="11" rx="2" ry="2" fill="#9be9a8"><title>2025-03-06: 0.45h</title></rect>
<rect x="166" y="117" width="11" height="11" rx="2" ry="2" fill="#9be9a8"><title>2025-03-07: 0.23h</title></rect>
<rect x="166" y="130" width="11" height="11" rx="2" ry="2" fill="#ebedf0"><title>2025-03-08: 0.00h</title></rect>
<rect x="179" y="52" width="11" height="11" rx="2" ry="2" fill="#ebedf0"><title>2025-03-09: 0.00h</title></rect>
<rect x="179" y="65" width="11" height="11" rx="2" ry="2" fill="#9be9a8"><title>2025-03-10: 0.05h</title></rect>
<rect x="179" y="78" width="11" height="11" rx="2" ry="2" fill="#9be9a8"><title>2025-03-11: 0.63h</title></rect>
<rect x="179" y="91" width="11" height="11" rx="2" ry="2" fill="#30a14e"><title>2025-03-12: 3.00h</title></rect>
<rect x="179" y="104" width="11" height="11" rx="2" ry="2" fill="#9be9a8"><title>2025-03-13: 0.01h</title></rect>
<rect x="179" y="117" width="11" height="11" rx="2" ry="2" fill="#ebedf0"><title>2025-03-14: 0.00h</title></rect>
<rect x="179" y="130" width="11" height="11" rx="2" ry="2" fill="#40c463"><title>2025-03-15: 1.69h</title></rect>
<rect x="192" y="52" width="11" height="11" rx="2" ry="2" fill="#40c463"><title>2025-03-16: 1.15h</title></rect>
<rect x="192" y="65" width="11" height="11" rx="2" ry="2" fill="#40c463"><title>2025-03-17: 1.47h</title></rect>
<rect x="192" y="78" width="11" height="11" rx="2" ry="2" fill="#ebedf0"><title>2025-03-18: 0.00h</title></rect>
<rect x="192" y="91" width="11" height="11" rx="2" ry="2" fill="#ebedf0"><title>2025-03-19: 0.00h</title></rect>
<rect x="192" y="104" width="11" height="11" rx="2" ry="2" fill="#ebedf0"><title>2025-03-20: 0.00h</title></rect>
<rect x="192" y="117" width="11" height="11" rx="2" ry="2" fill="#ebedf0"><title>2025-03-21: 0.00h</title></rect>
<rect x="192" y="130" width="11" height="11" rx="2" ry="2" fill="#ebedf0"><title>2025-03-22: 0.00h</title></rect>
<rect x="205" y="52" width="11" height="11" rx="2" ry="2" fill="#ebedf0"><title>2025-03-23: 0.00h</title></rect>
<rect x="205" y="65" width="11" height="11" rx="2" ry="2" fill="#9be9a8"><title>2025-03-24: 0.35h</title></rect>
<rect x="205" y="78" width="11" height="11" rx="2" ry="2" fill="#9be9a8"><title>2025-03-25: 0.66h</title></rect>
<rect x="205" y="91" width="11" height="11" rx="2" ry="2" fill="#40c463"><title>2025-03-26: 1.13h</title></rect>
<rect x="205" y="104" width="11" height="11" rx="2" ry="2" fill="#9be9a8"><title>2025-03-27: 0.34h</title></rect>
<rect x="205" y="117" width="11" height="11" rx="2" ry="2" fill="#30a14e"><title>2025-03-28: 3.84h</title></rect>
<rect x="205" y="130" width="11" height="11" rx="2" ry="2" fill="#30a14e"><title>2025-03-29: 3.42h</title></rect>
<rect x="218" y="52" width="11" height="11" rx="2" ry="2" fill="#9be9a8"><title>2025-03-30: 0.09h</title></rect>
<rect x="218" y="65" width="11" height="11" rx="2" ry="2" fill="#ebedf0"><title>2025-03-31: 0.00h</title></rect>
<rect x="218" y="78" width="11" height="11" rx="2" ry="2" fill="#ebedf0"><title>2025-04-01: 0.00h</title></rect>
<rect x="218" y="91" width="11" height="11" rx="2" ry="2" fill="#40c463"><title>2025-04-02: 1.67h</title></rect>
<rect x="218" y="104" width="11" height="11" rx="2" ry="2" fill="#ebedf0"><title>2025-04-03: 0.00h</title></rect>
<rect x="218" y="117" width="11" height="11" rx="2" ry="2" fill="#ebedf0"><title>2025-04-04: 0.00h</title></rect>
<rect x="218" y="130" width="11" height="11" rx="2" ry="2" fill="#9be9a8"><title>2025-04-05: 0.08h</title></rect>
<rect x="231" y="52" width="11" height="11" rx="2" ry="2" fill="#ebedf0"><title>2025-04-06: 0.00h</title></rect>
<rect x="231" y="65" width="11" height="11" rx="2" ry="2" fill="#ebedf0"><title>2025-04-07: 0.00h</title></rect>
<rect x="231" y="78" width="11" height="11" rx="2" ry="2" fill="#40c463"><title>2025-04-08: 1.45h</title></rect>
<rect x="231" y="91" width="11" height="11" rx="2" ry="2" fill="#ebedf0"><title>2025-04-09: 0.00h</title></rect>
<rect x="231" y="104" width="11" height="11" rx="2" ry="2" fill="#40c463"><title>2025-04-10: 1.31h</title></rect>
<rect x="231" y="117" width="11" height="11" rx="2" ry="2" fill="#216e39"><title>2025-04-11: 4.91h</title></rect>
<rect x="231" y="130" width="11" height="11" rx="2" ry="2" fill="#216e39"><title>2025-04-12: 4.32h</title></rect>
<rect x="244" y="52" width="11" height="11" rx="2" ry="2" fill="#ebedf0"><title>2025-04-13: 0.00h</title></rect>
<rect x="244" y="65" width="11" height="11" rx="2" ry="2" fill="#40c463"><title>2025-04-14: 1.18h</title></rect>
<rect x="244" y="78" width="11" height="11" rx="2" ry="2" fill="#30a14e"><title>2025-04-15: 3.78h</title></rect>
<rect x="244" y="91" width="11" height="11" rx="2" ry="2" fill="#30a14e"><title>2025-04-16: 2.77h</title></rect>
<rect x="244" y="104" width="11" height="11" rx="2" ry="2" fill="#ebedf0"><title>2025-04-17: 0.00h</title></rect>
<rect x="244" y="117" width="11" height="11" rx="2" ry="2" fill="#ebedf0"><title>2025-04-18: 0.00h</title></rect>
<rect x="244" y="130" width="11" height="11" rx="2" ry="2" fill="#40c463"><title>2025-04-19: 1.28h</title></rect>
<rect x="257" y="52" width="11" height="11" rx="2" ry="2" fill="#30a14e"><title>2025-04-20: 2.23h</title></rect>
<rect x="257" y="65" width="11" height="11" rx="2" ry="2" fill="#40c463"><title>2025-04-21: 1.67h</title></rect>
<rect x="257" y="78" width="11" height="11" rx="2" ry="2" fill="#9be9a8"><title>2025-04-22: 0.02h</title></rect>
<rect x="257" y="91" width="11" height="11" rx="2" ry="2" fill="#30a14e"><title>2025-04-23: 3.63h</title></rect>
<rect x="257" y="104" width="11" height="11" rx="2" ry="2" fill="#216e39"><title>2025-04-24: 4.24h</title></rect>
<rect x="257" y="117" width="11" height="11" rx="2" ry="2" fill="#216e39"><title>2025-04-25: 4.05h</title></rect>
<rect x="257" y="130" width="11" height="11" rx="2" ry="2" fill="#ebedf0"><title>2025-04-26: 0.00h</title></rect>
<rect x="270" y="52" width="11" height="11" rx="2" ry="2" fill="#40c463"><title>2025-04-27: 1.47h</title></rect>
<rect x="270" y="65" width="11" height="11" rx="2" ry="2" fill="#ebedf0"><title>2025-04-28: 0.00h</title></rect>
<rect x="270" y="78" width="11" height="11" rx="2" ry="2" fill="#ebedf0"><title>2025-04-29: 0.00h</title></rect>
<rect x="270" y="91" width="11" height="11" rx="2" ry="2" fill="#ebedf0"><title>2025-04-30: 0.00h</title></rect>
<rect x="270" y="104" width="11" height="11" rx="2" ry="2" fill="#ebedf0"><title>2025-05-01: 0.00h</title></rect>
<rect x="270" y="117" width="11" height="11" rx="2" ry="2" fill="#ebedf0"><title>2025-05-02: 0.00h</title></rect>
<rect x="270" y="130" width="11" height="11" rx="2" ry="2" fill="#ebedf0"><title>2025-05-03: 0.00h</title></rect>
<rect x="283" y="52" width="11" height="11" rx="2" ry="2" fill="#30a14e"><title>2025-05-04: 2.69h</title></rect>
<rect x="283" y="65" width="11" height="11" rx="2" ry="2" fill="#9be9a8"><title>2025-05-05: 0.67h</title></rect>
<rect x="283" y="78" width="11" height="11" rx="2" ry="2" fill="#30a14e"><title>2025-05-06: 3.11h</title></rect>
<rect x="283" y="91" width="11" height="11" rx="2" ry="2" fill="#40c463"><title>2025-05-07: 2.17h</title></rect>
<rect x="283" y="104" width="11" height="11" rx="2" ry="2" fill="#9be9a8"><title>2025-05-08: 0.05h</title></rect>
<rect x="283" y="117" width="11" height="11" rx="2" ry="2" fill="#30a14e"><title>2025-05-09: 3.45h</title></rect>
<rect x="283" y="130" width="11" height="11" rx="2" ry="2" fill="#216e39"><title>2025-05-10: 5.29h</title></rect>
<rect x="296" y="52" width="11" height="11" rx="2" ry="2" fill="#216e39"><title>2025-05-11: 4.27h</title></rect>
<rect x="296" y="65" width="11" height="11" rx="2" ry="2" fill="#216e39"><title>2025-05-12: 4.30h</title></rect>
<rect x="296" y="78" width="11" height="11" rx="2" ry="2" fill="#30a14e"><title>2025-05-13: 2.77h</title></rect>
<rect x="296" y="91" width="11" height="11" rx="2" ry="2" fill="#30a14e"><title>2025-05-14: 2.44h</title></rect>
<rect x="296" y="104" width="11" height="11" rx="2" ry="2" fill="#30a14e"><title>2025-05-15: 2.35h</title></rect>
<rect x="296" y="117" width="11" height="11" rx="2" ry="2" fill="#30a14e"><title>2025-05-16: 2.87h</title></rect>
<rect x="296" y="130" width="11" height="11" rx="2" ry="2" fill="#30a14e"><title>2025-05-17: 2.23h</title></rect>
<rect x="309" y="52" width="11" height="11" rx="2" ry="2" fill="#30a14e"><title>2025-05-18: 3.50h</title></rect>
<rect x="309" y="65" width="11" height="11" rx="2" ry="2" fill="#30a14e"><title>2025-05-19: 3.01h</title></rect>
<rect x="309" y="78" width="11" height="11" rx="2" ry="2" fill="#40c463"><title>2025-05-20: 1.69h</title></rect>
<rect x="309" y="91" width="11" height="11" rx="2" ry="2" fill="#40c463"><title>2025-05-21: 1.55h</title></rect>
<rect x="309" y="104" width="11" height="11" rx="2" ry="2" fill="#216e39"><title>2025-05-22: 10.74h</title></rect>
<rect x="309" y="117" width="11" height="11" rx="2" ry="2" fill="#216e39"><title>2025-05-23: 4.56h</title></rect>
<rect x="309" y="130" width="11" height="11" rx="2" ry="2" fill="#216e39"><title>2025-05-24: 5.81h</title></rect>
<rect x="322" y="52" width="11" height="11" rx="2" ry="2" fill="#216e39"><title>2025-05-25: 4.83h</title></rect>
<rect x="322" y="65" width="11" height="11" rx="2" ry="2" fill="#30a14e"><title>2025-05-26: 3.64h</title></rect>
<rect x="322" y="78" width="11" height="11" rx="2" ry="2" fill="#216e39"><title>2025-05-27: 3.95h</title></rect>
<rect x="322" y="91" width="11" height="11" rx="2" ry="2" fill="#40c463"><title>2025-05-28: 1.32h</title></rect>
<rect x="322" y="104" width="11" height="11" rx="2" ry="2" fill="#216e39"><title>2025-05-29: 5.32h</title></rect>
<rect x="322" y="117" width="11" height="11" rx="2" ry="2" fill="#216e39"><title>2025-05-30: 4.44h</title></rect>
<rect x="322" y="130" width="11" height="11" rx="2" ry="2" fill="#ebedf0"><title>2025-05-31: 0.00h</title></rect>
<rect x="335" y="52" width="11" height="11" rx="2" ry="2" fill="#216e39"><title>2025-06-01: 5.65h</title></rect>
<rect x="335" y="65" width="11" height="11" rx="2" ry="2" fill="#9be9a8"><title>2025-06-02: 1.01h</title></rect>
<rect x="335" y="78" width="11" height="11" rx="2" ry="2" fill="#40c463"><title>2025-06-03: 1.92h</title></rect>
<rect x="335" y="91" width="11" height="11" rx="2" ry="2" fill="#40c463"><title>2025-06-04: 1.50h</title></rect>
<rect x="335" y="104" width="11" height="11" rx="2" ry="2" fill="#216e39"><title>2025-06-05: 7.82h</title></rect>
<rect x="335" y="117" width="11" height="11" rx="2" ry="2" fill="#216e39"><title>2025-06-06: 7.00h</title></rect>
<rect x="335" y="130" width="11" height="11" rx="2" ry="2" fill="#216e39"><title>2025-06-07: 4.56h</title></rect>
<rect x="348" y="52" width="11" height="11" rx="2" ry="2" fill="#40c463"><title>2025-06-08: 1.98h</title></rect>
<rect x="348" y="65" width="11" height="11" rx="2" ry="2" fill="#9be9a8"><title>2025-06-09: 0.29h</title></rect>
<rect x="348" y="78" width="11" height="11" rx="2" ry="2" fill="#216e39"><title>2025-06-10: 4.35h</title></rect>
<rect x="348" y="91" width="11" height="11" rx="2" ry="2" fill="#30a14e"><title>2025-06-11: 2.47h</title></rect>
<rect x="348" y="104" width="11" height="11" rx="2" ry="2" fill="#ebedf0"><title>2025-06-12: 0.00h</title></rect>
<rect x="348" y="117" width="11" height="11" rx="2" ry="2" fill="#9be9a8"><title>2025-06-13: 0.08h</title></rect>
<rect x="348" y="130" width="11" height="11" rx="2" ry="2" fill="#9be9a8"><title>2025-06-14: 1.06h</title></rect>
<rect x="361" y="52" width="11" height="11" rx="2" ry="2" fill="#ebedf0"><title>2025-06-15: 0.00h</title></rect>
<rect x="361" y="65" width="11" height="11" rx="2" ry="2" fill="#40c463"><title>2025-06-16: 1.56h</title></rect>
<rect x="361" y="78" width="11" height="11" rx="2" ry="2" fill="#30a14e"><title>2025-06-17: 2.21h</title></rect>
<rect x="361" y="91" width="11" height="11" rx="2" ry="2" fill="#30a14e"><title>2025-06-18: 2.23h</title></rect>
<rect x="361" y="104" width="11" height="11" rx="2" ry="2" fill="#216e39"><title>2025-06-19: 6.28h</title></rect>
<rect x="361" y="117" width="11" height="11" rx="2" ry="2" fill="#216e39"><title>2025-06-20: 5.67h</title></rect>
<rect x="361" y="130" width="11" height="11" rx="2" ry="2" fill="#9be9a8"><title>2025-06-21: 1.00h</title></rect>
<rect x="374" y="52" width="11" height="11" rx="2" ry="2" fill="#40c463"><title>2025-06-22: 1.39h</title></rect>
<rect x="374" y="65" width="11" height="11" rx="2" ry="2" fill="#40c463"><title>2025-06-23: 1.20h</title></rect>
<rect x="374" y="78" width="11" height="11" rx="2" ry="2" fill="#40c463"><title>2025-06-24: 1.65h</title></rect>
<rect x="374" y="91" width="11" height="11" rx="2" ry="2" fill="#9be9a8"><title>2025-06-25: 0.34h</title></rect>
<rect x="374" y="104" width="11" height="11" rx="2" ry="2" fill="#ebedf0"><title>2025-06-26: 0.00h</title></rect>
<rect x="374" y="117" width="11" height="11" rx="2" ry="2" fill="#40c463"><title>2025-06-27: 1.51h</title></rect>
<rect x="374" y="130" width="11" height="11" rx="2" ry="2" fill="#9be9a8"><title>2025-06-28: 0.00h</title></rect>
<rect x="387" y="52" width="11" height="11" rx="2" ry="2" fill="#9be9a8"><title>2025-06-29: 1.10h</title></rect>
<rect x="387" y="65" width="11" height="11" rx="2" ry="2" fill="#9be9a8"><title>2025-06-30: 0.07h</title></rect>
<rect x="387" y="78" width="11" height="11" rx="2" ry="2" fill="#216e39"><title>2025-07-01: 7.71h</title></rect>
<rect x="387" y="91" width="11" height="11" rx="2" ry="2" fill="#9be9a8"><title>2025-07-02: 0.01h</title></rect>
<rect x="387" y="104" width="11" height="11" rx="2" ry="2" fill="#ebedf0"><title>2025-07-03: 0.00h</title></rect>
<rect x="387" y="117" width="11" height="11" rx="2" ry="2" fill="#ebedf0"><title>2025-07-04: 0.00h</title></rect>
<rect x="387" y="130" width="11" height="11" rx="2" ry="2" fill="#ebedf0"><title>2025-07-05: 0.00h</title></rect>
<rect x="400" y="52" width="11" height="11" rx="2" ry="2" fill="#ebedf0"><title>2025-07-06: 0.00h</title></rect>
<rect x="400" y="65" width="11" height="11" rx="2" ry="2" fill="#ebedf0"><title>2025-07-07: 0.00h</title></rect>
<rect x="400" y="78" width="11" height="11" rx="2" ry="2" fill="#ebedf0"><title>2025-07-08: 0.00h</title></rect>
<rect x="400" y="91" width="11" height="11" rx="2" ry="2" fill="#ebedf0"><title>2025-07-09: 0.00h</title></rect>
<rect x="400" y="104" width="11" height="11" rx="2" ry="2" fill="#9be9a8"><title>2025-07-10: 0.28h</title></rect>
<rect x="400" y="117" width="11" height="11" rx="2" ry="2" fill="#40c463"><title>2025-07-11: 1.16h</title></rect>
<rect x="400" y="130" width="11" height="11" rx="2" ry="2" fill="#ebedf0"><title>2025-07-12: 0.00h</title></rect>
<rect x="413" y="52" width="11" height="11" rx="2" ry="2" fill="#ebedf0"><title>2025-07-13: 0.00h</title></rect>
<rect x="413" y="65" width="11" height="11" rx="2" ry="2" fill="#ebedf0"><title>2025-07-14: 0.00h</title></rect>
<rect x="413" y="78" width="11" height="11" rx="2" ry="2" fill="#ebedf0"><title>2025-07-15: 0.00h</title></rect>
<rect x="413" y="91" width="11" height="11" rx="2" ry="2" fill="#40c463"><title>2025-07-16: 1.53h</title></rect>
<rect x="413" y="104" width="11" height="11" rx="2" ry="2" fill="#30a14e"><title>2025-07-17: 2.53h</title></rect>
<rect x="413" y="117" width="11" height="11" rx="2" ry="2" fill="#40c463"><title>2025-07-18: 1.61h</title></rect>
<rect x="413" y="130" width="11" height="11" rx="2" ry="2" fill="#9be9a8"><title>2025-07-19: 0.44h</title></rect>
<rect x="426" y="52" width="11" height="11" rx="2" ry="2" fill="#40c463"><title>2025-07-20: 1.71h</title></rect>
<rect x="426" y="65" width="11" height="11" rx="2" ry="2" fill="#9be9a8"><title>2025-07-21: 0.50h</title></rect>
<rect x="426" y="78" width="11" height="11" rx="2" ry="2" fill="#ebedf0"><title>2025-07-22: 0.00h</title></rect>
<rect x="426" y="91" width="11" height="11" rx="2" ry="2" fill="#ebedf0"><title>2025-07-23: 0.00h</title></rect>
<rect x="426" y="104" width="11" height="11" rx="2" ry="2" fill="#ebedf0"><title>2025-07-24: 0.00h</title></rect>
<rect x="426" y="117" width="11" height="11" rx="2" ry="2" fill="#ebedf0"><title>2025-07-25: 0.00h</title></rect>
<rect x="426" y="130" width="11" height="11" rx="2" ry="2" fill="#ebedf0"><title>2025-07-26: 0.00h</title></rect>
<rect x="439" y="52" width="11" height="11" rx="2" ry="2" fill="#ebedf0"><title>2025-07-27: 0.00h</title></rect>
<rect x="439" y="65" width="11" height="11" rx="2" ry="2" fill="#ebedf0"><title>2025-07-28: 0.00h</title></rect>
<rect x="439" y="78" width="11" height="11" rx="2" ry="2" fill="#ebedf0"><title>2025-07-29: 0.00h</title></rect>
<rect x="439" y="91" width="11" height="11" rx="2" ry="2" fill="#ebedf0"><title>2025-07-30: 0.00h</title></rect>
<rect x="439" y="104" width="11" height="11" rx="2" ry="2" fill="#ebedf0"><title>2025-07-31: 0.00h</title></rect>
<rect x="439" y="117" width="11" height="11" rx="2" ry="2" fill="#ebedf0"><title>2025-08-01: 0.00h</title></rect>
<rect x="439" y="130" width="11" height="11" rx="2" ry="2" fill="#9be9a8"><title>2025-08-02: 0.87h</title></rect>
<rect x="452" y="52" width="11" height="11" rx="2" ry="2" fill="#ebedf0"><title>2025-08-03: 0.00h</title></rect>
<rect x="452" y="65" width="11" height="11" rx="2" ry="2" fill="#40c463"><title>2025-08-04: 2.18h</title></rect>
<rect x="452" y="78" width="11" height="11" rx="2" ry="2" fill="#ebedf0"><title>2025-08-05: 0.00h</title></rect>
<rect x="452" y="91" width="11" height="11" rx="2" ry="2" fill="#9be9a8"><title>2025-08-06: 0.33h</title></rect>
<rect x="452" y="104" width="11" height="11" rx="2" ry="2" fill="#9be9a8"><title>2025-08-07: 0.05h</title></rect>
<rect x="452" y="117" width="11" height="11" rx="2" ry="2" fill="#216e39"><title>2025-08-08: 3.89h</title></rect>
<rect x="452" y="130" width="11" height="11" rx="2" ry="2" fill="#216e39"><title>2025-08-09: 5.02h</title></rect>
<rect x="465" y="52" width="11" height="11" rx="2" ry="2" fill="#40c463"><title>2025-08-10: 2.17h</title></rect>
<rect x="465" y="65" width="11" height="11" rx="2" ry="2" fill="#9be9a8"><title>2025-08-11: 0.65h</title></rect>
<rect x="465" y="78" width="11" height="11" rx="2" ry="2" fill="#40c463"><title>2025-08-12: 1.43h</title></rect>
<rect x="465" y="91" width="11" height="11" rx="2" ry="2" fill="#40c463"><title>2025-08-13: 1.24h</title></rect>
<rect x="465" y="104" width="11" height="11" rx="2" ry="2" fill="#ebedf0"><title>2025-08-14: 0.00h</title></rect>
<rect x="465" y="117" width="11" height="11" rx="2" ry="2" fill="#9be9a8"><title>2025-08-15: 0.90h</title></rect>
<rect x="465" y="130" width="11" height="11" rx="2" ry="2" fill="#ebedf0"><title>2025-08-16: 0.00h</title></rect>
<rect x="478" y="52" width="11" height="11" rx="2" ry="2" fill="#ebedf0"><title>2025-08-17: 0.00h</title></rect>
<rect x="478" y="65" width="11" height="11" rx="2" ry="2" fill="#ebedf0"><title>2025-08-18: 0.00h</title></rect>
<rect x="478" y="78" width="11" height="11" rx="2" ry="2" fill="#40c463"><title>2025-08-19: 1.44h</title></rect>
<rect x="478" y="91" width="11" height="11" rx="2" ry="2" fill="#40c463"><title>2025-08-20: 1.25h</title></rect>
<rect x="478" y="104" width="11" height="11" rx="2" ry="2" fill="#9be9a8"><title>2025-08-21: 0.70h</title></rect>
<rect x="478" y="117" width="11" height="11" rx="2" ry="2" fill="#216e39"><title>2025-08-22: 4.57h</title></rect>
<rect x="478" y="130" width="11" height="11" rx="2" ry="2" fill="#216e39"><title>2025-08-23: 5.59h</title></rect>
<rect x="491" y="52" width="11" height="11" rx="2" ry="2" fill="#216e39"><title>2025-08-24: 5.61h</title></rect>
<rect x="491" y="65" width="11" height="11" rx="2" ry="2" fill="#30a14e"><title>2025-08-25: 3.39h</title></rect>
<rect x="491" y="78" width="11" height="11" rx="2" ry="2" fill="#40c463"><title>2025-08-26: 1.47h</title></rect>
<rect x="491" y="91" width="11" height="11" rx="2" ry="2" fill="#30a14e"><title>2025-08-27: 3.84h</title></rect>
<rect x="491" y="104" width="11" height="11" rx="2" ry="2" fill="#40c463"><title>2025-08-28: 1.26h</title></rect>
<rect x="491" y="117" width="11" height="11" rx="2" ry="2" fill="#9be9a8"><title>2025-08-29: 0.58h</title></rect>
<rect x="491" y="130" width="11" height="11" rx="2" ry="2" fill="#9be9a8"><title>2025-08-30: 0.94h</title></rect>
<rect x="504" y="52" width="11" height="11" rx="2" ry="2" fill="#ebedf0"><title>2025-08-31: 0.00h</title></rect>
<rect x="504" y="65" width="11" height="11" rx="2" ry="2" fill="#30a14e"><title>2025-09-01: 2.32h</title></rect>
<rect x="504" y="78" width="11" height="11" rx="2" ry="2" fill="#216e39"><title>2025-09-02: 5.33h</title></rect>
<rect x="504" y="91" width="11" height="11" rx="2" ry="2" fill="#216e39"><title>2025-09-03: 4.05h</title></rect>
<rect x="504" y="104" width="11" height="11" rx="2" ry="2" fill="#30a14e"><title>2025-09-04: 2.97h</title></rect>
<rect x="504" y="117" width="11" height="11" rx="2" ry="2" fill="#30a14e"><title>2025-09-05: 3.40h</title></rect>
<rect x="504" y="130" width="11" height="11" rx="2" ry="2" fill="#9be9a8"><title>2025-09-06: 0.76h</title></rect>
<rect x="517" y="52" width="11" height="11" rx="2" ry="2" fill="#ebedf0"><title>2025-09-07: 0.00h</title></rect>
<rect x="517" y="65" width="11" height="11" rx="2" ry="2" fill="#ebedf0"><title>2025-09-08: 0.00h</title></rect>
<rect x="517" y="78" width="11" height="11" rx="2" ry="2" fill="#216e39"><title>2025-09-09: 4.57h</title></rect>
<rect x="517" y="91" width="11" height="11" rx="2" ry="2" fill="#30a14e"><title>2025-09-10: 2.25h</title></rect>
<rect x="517" y="104" width="11" height="11" rx="2" ry="2" fill="#216e39"><title>2025-09-11: 5.00h</title></rect>
<rect x="517" y="117" width="11" height="11" rx="2" ry="2" fill="#216e39"><title>2025-09-12: 5.01h</title></rect>
<rect x="517" y="130" width="11" height="11" rx="2" ry="2" fill="#216e39"><title>2025-09-13: 4.43h</title></rect>
<rect x="530" y="52" width="11" height="11" rx="2" ry="2" fill="#30a14e"><title>2025-09-14: 2.69h</title></rect>
<rect x="530" y="65" width="11" height="11" rx="2" ry="2" fill="#9be9a8"><title>2025-09-15: 0.67h</title></rect>
<rect x="530" y="78" width="11" height="11" rx="2" ry="2" fill="#40c463"><title>2025-09-16: 1.52h</title></rect>
<rect x="530" y="91" width="11" height="11" rx="2" ry="2" fill="#30a14e"><title>2025-09-17: 2.94h</title></rect>
<rect x="530" y="104" width="11" height="11" rx="2" ry="2" fill="#40c463"><title>2025-09-18: 1.81h</title></rect>
<rect x="530" y="117" width="11" height="11" rx="2" ry="2" fill="#9be9a8"><title>2025-09-19: 0.74h</title></rect>
<rect x="530" y="130" width="11" height="11" rx="2" ry="2" fill="#ebedf0"><title>2025-09-20: 0.00h</title></rect>
<rect x="543" y="52" width="11" height="11" rx="2" ry="2" fill="#40c463"><title>2025-09-21: 1.32h</title></rect>
<rect x="543" y="65" width="11" height="11" rx="2" ry="2" fill="#9be9a8"><title>2025-09-22: 0.29h</title></rect>
<rect x="543" y="78" width="11" height="11" rx="2" ry="2" fill="#9be9a8"><title>2025-09-23: 1.07h</title></rect>
<rect x="543" y="91" width="11" height="11" rx="2" ry="2" fill="#9be9a8"><title>2025-09-24: 0.44h</title></rect>
<rect x="543" y="104" width="11" height="11" rx="2" ry="2" fill="#40c463"><title>2025-09-25: 1.28h</title></rect>
<rect x="543" y="117" width="11" height="11" rx="2" ry="2" fill="#40c463"><title>2025-09-26: 1.28h</title></rect>
<rect x="543" y="130" width="11" height="11" rx="2" ry="2" fill="#ebedf0"><title>2025-09-27: 0.00h</title></rect>
<rect x="556" y="52" width="11" height="11" rx="2" ry="2" fill="#40c463"><title>2025-09-28: 1.39h</title></rect>
<rect x="556" y="65" width="11" height="11" rx="2" ry="2" fill="#30a14e"><title>2025-09-29: 3.47h</title></rect>
<rect x="556" y="78" width="11" height="11" rx="2" ry="2" fill="#216e39"><title>2025-09-30: 4.22h</title></rect>
<rect x="556" y="91" width="11" height="11" rx="2" ry="2" fill="#30a14e"><title>2025-10-01: 2.60h</title></rect>
<rect x="556" y="104" width="11" height="11" rx="2" ry="2" fill="#216e39"><title>2025-10-02: 9.71h</title></rect>
<rect x="556" y="117" width="11" height="11" rx="2" ry="2" fill="#216e39"><title>2025-10-03: 4.08h</title></rect>
<rect x="556" y="130" width="11" height="11" rx="2" ry="2" fill="#216e39"><title>2025-10-04: 8.40h</title></rect>
<rect x="569" y="52" width="11" height="11" rx="2" ry="2" fill="#216e39"><title>2025-10-05: 5.53h</title></rect>
<rect x="569" y="65" width="11" height="11" rx="2" ry="2" fill="#9be9a8"><title>2025-10-06: 0.05h</title></rect>
<rect x="569" y="78" width="11" height="11" rx="2" ry="2" fill="#216e39"><title>2025-10-07: 4.64h</title></rect>
<rect x="569" y="91" width="11" height="11" rx="2" ry="2" fill="#30a14e"><title>2025-10-08: 3.03h</title></rect>
<rect x="569" y="104" width="11" height="11" rx="2" ry="2" fill="#216e39"><title>2025-10-09: 4.72h</title></rect>
<rect x="569" y="117" width="11" height="11" rx="2" ry="2" fill="#30a14e"><title>2025-10-10: 2.36h</title></rect>
<rect x="569" y="130" width="11" height="11" rx="2" ry="2" fill="#ebedf0"><title>2025-10-11: 0.00h</title></rect>
<rect x="582" y="52" width="11" height="11" rx="2" ry="2" fill="#30a14e"><title>2025-10-12: 2.67h</title></rect>
<rect x="582" y="65" width="11" height="11" rx="2" ry="2" fill="#40c463"><title>2025-10-13: 1.64h</title></rect>
<rect x="582" y="78" width="11" height="11" rx="2" ry="2" fill="#216e39"><title>2025-10-14: 5.50h</title></rect>
<rect x="582" y="91" width="11" height="11" rx="2" ry="2" fill="#30a14e"><title>2025-10-15: 2.70h</title></rect>
<rect x="582" y="104" width="11" height="11" rx="2" ry="2" fill="#40c463"><title>2025-10-16: 1.28h</title></rect>
<rect x="582" y="117" width="11" height="11" rx="2" ry="2" fill="#40c463"><title>2025-10-17: 1.13h</title></rect>
<rect x="582" y="130" width="11" height="11" rx="2" ry="2" fill="#30a14e"><title>2025-10-18: 2.19h</title></rect>
<rect x="595" y="52" width="11" height="11" rx="2" ry="2" fill="#30a14e"><title>2025-10-19: 3.34h</title></rect>
<rect x="595" y="65" width="11" height="11" rx="2" ry="2" fill="#40c463"><title>2025-10-20: 1.40h</title></rect>
<rect x="595" y="78" width="11" height="11" rx="2" ry="2" fill="#30a14e"><title>2025-10-21: 2.90h</title></rect>
<rect x="595" y="91" width="11" height="11" rx="2" ry="2" fill="#216e39"><title>2025-10-22: 5.39h</title></rect>
<rect x="595" y="104" width="11" height="11" rx="2" ry="2" fill="#30a14e"><title>2025-10-23: 3.31h</title></rect>
<rect x="595" y="117" width="11" height="11" rx="2" ry="2" fill="#30a14e"><title>2025-10-24: 2.41h</title></rect>
<rect x="595" y="130" width="11" height="11" rx="2" ry="2" fill="#9be9a8"><title>2025-10-25: 0.39h</title></rect>
<rect x="608" y="52" width="11" height="11" rx="2" ry="2" fill="#ebedf0"><title>2025-10-26: 0.00h</title></rect>
<rect x="608" y="65" width="11" height="11" rx="2" ry="2" fill="#30a14e"><title>2025-10-27: 3.52h</title></rect>
<rect x="608" y="78" width="11" height="11" rx="2" ry="2" fill="#40c463"><title>2025-10-28: 1.78h</title></rect>
<rect x="608" y="91" width="11" height="11" rx="2" ry="2" fill="#30a14e"><title>2025-10-29: 2.39h</title></rect>
<rect x="608" y="104" width="11" height="11" rx="2" ry="2" fill="#216e39"><title>2025-10-30: 5.32h</title></rect>
<rect x="608" y="117" width="11" height="11" rx="2" ry="2" fill="#30a14e"><title>2025-10-31: 2.90h</title></rect>
<rect x="608" y="130" width="11" height="11" rx="2" ry="2" fill="#ebedf0"><title>2025-11-01: 0.00h</title></rect>
<rect x="621" y="52" width="11" height="11" rx="2" ry="2" fill="#ebedf0"><title>2025-11-02: 0.00h</title></rect>
<rect x="621" y="65" width="11" height="11" rx="2" ry="2" fill="#216e39"><title>2025-11-03: 4.83h</title></rect>
<rect x="621" y="78" width="11" height="11" rx="2" ry="2" fill="#30a14e"><title>2025-11-04: 3.72h</title></rect>
<rect x="621" y="91" width="11" height="11" rx="2" ry="2" fill="#30a14e"><title>2025-11-05: 3.28h</title></rect>
<rect x="621" y="104" width="11" height="11" rx="2" ry="2" fill="#216e39"><title>2025-11-06: 4.13h</title></rect>
<rect x="621" y="117" width="11" height="11" rx="2" ry="2" fill="#216e39"><title>2025-11-07: 5.00h</title></rect>
<rect x="621" y="130" width="11" height="11" rx="2" ry="2" fill="#30a14e"><title>2025-11-08: 3.79h</title></rect>
<rect x="634" y="52" width="11" height="11" rx="2" ry="2" fill="#9be9a8"><title>2025-11-09: 0.06h</title></rect>
<rect x="634" y="65" width="11" height="11" rx="2" ry="2" fill="#30a14e"><title>2025-11-10: 3.61h</title></rect>
<rect x="634" y="78" width="11" height="11" rx="2" ry="2" fill="#9be9a8"><title>2025-11-11: 0.55h</title></rect>
<rect x="634" y="91" width="11" height="11" rx="2" ry="2" fill="#216e39"><title>2025-11-12: 4.75h</title></rect>
<rect x="634" y="104" width="11" height="11" rx="2" ry="2" fill="#30a14e"><title>2025-11-13: 2.78h</title></rect>
<rect x="634" y="117" width="11" height="11" rx="2" ry="2" fill="#30a14e"><title>2025-11-14: 3.74h</title></rect>
<rect x="634" y="130" width="11" height="11" rx="2" ry="2" fill="#ebedf0"><title>2025-11-15: 0.00h</title></rect>
<rect x="647" y="52" width="11" height="11" rx="2" ry="2" fill="#40c463"><title>2025-11-16: 1.53h</title></rect>
<rect x="647" y="65" width="11" height="11" rx="2" ry="2" fill="#40c463"><title>2025-11-17: 1.50h</title></rect>
<rect x="647" y="78" width="11" height="11" rx="2" ry="2" fill="#40c463"><title>2025-11-18: 1.53h</title></rect>
<rect x="647" y="91" width="11" height="11" rx="2" ry="2" fill="#216e39"><title>2025-11-19: 10.29h</title></rect>
<rect x="647" y="104" width="11" height="11" rx="2" ry="2" fill="#216e39"><title>2025-11-20: 8.70h</title></rect>
<rect x="647" y="117" width="11" height="11" rx="2" ry="2" fill="#216e39"><title>2025-11-21: 5.19h</title></rect>
<rect x="647" y="130" width="11" height="11" rx="2" ry="2" fill="#216e39"><title>2025-11-22: 6.65h</title></rect>
<rect x="660" y="52" width="11" height="11" rx="2" ry="2" fill="#40c463"><title>2025-11-23: 1.21h</title></rect>
<rect x="660" y="65" width="11" height="11" rx="2" ry="2" fill="#9be9a8"><title>2025-11-24: 0.84h</title></rect>
<rect x="660" y="78" width="11" height="11" rx="2" ry="2" fill="#40c463"><title>2025-11-25: 1.36h</title></rect>
<rect x="660" y="91" width="11" height="11" rx="2" ry="2" fill="#216e39"><title>2025-11-26: 6.99h</title></rect>
<rect x="660" y="104" width="11" height="11" rx="2" ry="2" fill="#216e39"><title>2025-11-27: 5.31h</title></rect>
<rect x="660" y="117" width="11" height="11" rx="2" ry="2" fill="#216e39"><title>2025-11-28: 5.03h</title></rect>
<rect x="660" y="130" width="11" height="11" rx="2" ry="2" fill="#9be9a8"><title>2025-11-29: 0.18h</title></rect>
<rect x="673" y="52" width="11" height="11" rx="2" ry="2" fill="#30a14e"><title>2025-11-30: 2.48h</title></rect>
<rect x="673" y="65" width="11" height="11" rx="2" ry="2" fill="#40c463"><title>2025-12-01: 1.84h</title></rect>
<rect x="673" y="78" width="11" height="11" rx="2" ry="2" fill="#30a14e"><title>2025-12-02: 2.59h</title></rect>
<rect x="673" y="91" width="11" height="11" rx="2" ry="2" fill="#216e39"><title>2025-12-03: 5.02h</title></rect>
<rect x="673" y="104" width="11" height="11" rx="2" ry="2" fill="#40c463"><title>2025-12-04: 1.33h</title></rect>
<rect x="673" y="117" width="11" height="11" rx="2" ry="2" fill="#ebedf0"><title>2025-12-05: 0.00h</title></rect>
<rect x="673" y="130" width="11" height="11" rx="2" ry="2" fill="#ebedf0"><title>2025-12-06: 0.00h</title></rect>
<rect x="686" y="52" width="11" height="11" rx="2" ry="2" fill="#ebedf0"><title>2025-12-07: 0.00h</title></rect>
<rect x="686" y="65" width="11" height="11" rx="2" ry="2" fill="#40c463"><title>2025-12-08: 2.06h</title></rect>
<rect x="686" y="78" width="11" height="11" rx="2" ry="2" fill="#30a14e"><title>2025-12-09: 2.47h</title></rect>
<rect x="686" y="91" width="11" height="11" rx="2" ry="2" fill="#30a14e"><title>2025-12-10: 3.77h</title></rect>
<rect x="686" y="104" width="11" height="11" rx="2" ry="2" fill="#9be9a8"><title>2025-12-11: 0.02h</title></rect>
<rect x="686" y="117" width="11" height="11" rx="2" ry="2" fill="#9be9a8"><title>2025-12-12: 0.31h</title></rect>
<rect x="686" y="130" width="11" height="11" rx="2" ry="2" fill="#9be9a8"><title>2025-12-13: 0.79h</title></rect>
<rect x="699" y="52" width="11" height="11" rx="2" ry="2" fill="#216e39"><title>2025-12-14: 6.40h</title></rect>
<rect x="699" y="65" width="11" height="11" rx="2" ry="2" fill="#9be9a8"><title>2025-12-15: 0.95h</title></rect>
<rect x="699" y="78" width="11" height="11" rx="2" ry="2" fill="#ebedf0"><title>2025-12-16: 0.00h</title></rect>
<rect x="699" y="91" width="11" height="11" rx="2" ry="2" fill="#30a14e"><title>2025-12-17: 3.57h</title></rect>
<rect x="699" y="104" width="11" height="11" rx="2" ry="2" fill="#9be9a8"><title>2025-12-18: 0.33h</title></rect>
<rect x="699" y="117" width="11" height="11" rx="2" ry="2" fill="#9be9a8"><title>2025-12-19: 0.54h</title></rect>
<rect x="699" y="130" width="11" height="11" rx="2" ry="2" fill="#216e39"><title>2025-12-20: 4.20h</title></rect>
<rect x="712" y="52" width="11" height="11" rx="2" ry="2" fill="#216e39"><title>2025-12-21: 6.33h</title></rect>
<rect x="712" y="65" width="11" height="11" rx="2" ry="2" fill="#30a14e"><title>2025-12-22: 2.58h</title></rect>
<rect x="712" y="78" width="11" height="11" rx="2" ry="2" fill="#ebedf0"><title>2025-12-23: 0.00h</title></rect>
<rect x="712" y="91" width="11" height="11" rx="2" ry="2" fill="#ffffff"><title>2025-12-24: 0.00h</title></rect>
<rect x="712" y="104" width="11" height="11" rx="2" ry="2" fill="#ffffff"><title>2025-12-25: 0.00h</title></rect>
<rect x="712" y="117" width="11" height="11" rx="2" ry="2" fill="#ffffff"><title>2025-12-26: 0.00h</title></rect>
<rect x="712" y="130" width="11" height="11" rx="2" ry="2" fill="#ffffff"><title>2025-12-27: 0.00h</title></rect>
<text x="256" y="161" font-family="system-ui, -apple-system, Segoe UI, Roboto, Ubuntu, Cantarell, Noto Sans, Arial" font-size="10" fill="#666">Less</text>
<rect x="284" y="151" width="11" height="11" rx="2" ry="2" fill="#ebedf0"/>
<rect x="299" y="151" width="11" height="11" rx="2" ry="2" fill="#9be9a8"/>
<rect x="314" y="151" width="11" height="11" rx="2" ry="2" fill="#40c463"/>
<rect x="329" y="151" width="11" height="11" rx="2" ry="2" fill="#30a14e"/>
<rect x="344" y="151" width="11" height="11" rx="2" ry="2" fill="#216e39"/>
<text x="365" y="161" font-family="system-ui, -apple-system, Segoe UI, Roboto, Ubuntu, Cantarell, Noto Sans, Arial" font-size="10" fill="#666">More</text>
</svg>